<mxfile host="Electron" agent="Mozilla/5.0 (Windows NT 10.0; Win64; x64) AppleWebKit/537.36 (KHTML, like Gecko) draw.io/27.0.9 Chrome/134.0.6998.205 Electron/35.4.0 Safari/537.36" version="27.0.9" pages="2">
  <diagram name="vending_machine" id="pXB9CoqPIGeupnJhVFxW">
    <mxGraphModel dx="1744" dy="1142" grid="1" gridSize="10" guides="1" tooltips="1" connect="1" arrows="1" fold="1" page="1" pageScale="1" pageWidth="850" pageHeight="1100" math="0" shadow="0">
      <root>
        <mxCell id="0" />
        <mxCell id="1" parent="0" />
        <UserObject label="&lt;div style=&quot;color: rgb(59, 59, 59); background-color: rgb(255, 255, 255); font-family: Consolas, &amp;quot;Courier New&amp;quot;, monospace; font-size: 14px; line-height: 19px; white-space: pre;&quot;&gt;&lt;span style=&quot;color: #267f99;&quot;&gt;vending_machine&lt;/span&gt;&lt;/div&gt;" link="data:page/id,0YrOAmbkSy5akB-qSBVz" id="KnG4rFUmeMydKyy9aAMd-1">
          <mxCell style="rounded=0;whiteSpace=wrap;html=1;" vertex="1" parent="1">
            <mxGeometry x="380" y="380" width="140" height="300" as="geometry" />
          </mxCell>
        </UserObject>
        <mxCell id="KnG4rFUmeMydKyy9aAMd-3" value="" style="endArrow=classic;html=1;rounded=0;" edge="1" parent="1">
          <mxGeometry width="50" height="50" relative="1" as="geometry">
            <mxPoint x="180" y="400" as="sourcePoint" />
            <mxPoint x="380" y="400" as="targetPoint" />
          </mxGeometry>
        </mxCell>
        <mxCell id="KnG4rFUmeMydKyy9aAMd-13" value="&lt;span style=&quot;color: rgb(0, 16, 128); font-family: Consolas, &amp;quot;Courier New&amp;quot;, monospace; font-size: 14px; text-align: left; white-space-collapse: preserve;&quot;&gt;clk&lt;/span&gt;" style="edgeLabel;html=1;align=center;verticalAlign=middle;resizable=0;points=[];" vertex="1" connectable="0" parent="KnG4rFUmeMydKyy9aAMd-3">
          <mxGeometry x="0.15" y="4" relative="1" as="geometry">
            <mxPoint y="-6" as="offset" />
          </mxGeometry>
        </mxCell>
        <mxCell id="KnG4rFUmeMydKyy9aAMd-4" value="" style="endArrow=classic;html=1;rounded=0;" edge="1" parent="1">
          <mxGeometry width="50" height="50" relative="1" as="geometry">
            <mxPoint x="180" y="440" as="sourcePoint" />
            <mxPoint x="380" y="440" as="targetPoint" />
          </mxGeometry>
        </mxCell>
        <mxCell id="KnG4rFUmeMydKyy9aAMd-14" value="&lt;span style=&quot;color: rgb(0, 16, 128); font-family: Consolas, &amp;quot;Courier New&amp;quot;, monospace; font-size: 14px; text-align: left; white-space-collapse: preserve;&quot;&gt;rst_n&lt;/span&gt;" style="edgeLabel;html=1;align=center;verticalAlign=middle;resizable=0;points=[];" vertex="1" connectable="0" parent="KnG4rFUmeMydKyy9aAMd-4">
          <mxGeometry x="0.14" y="2" relative="1" as="geometry">
            <mxPoint x="1" y="-8" as="offset" />
          </mxGeometry>
        </mxCell>
        <mxCell id="KnG4rFUmeMydKyy9aAMd-5" value="" style="endArrow=classic;html=1;rounded=0;" edge="1" parent="1">
          <mxGeometry width="50" height="50" relative="1" as="geometry">
            <mxPoint x="180" y="480" as="sourcePoint" />
            <mxPoint x="380" y="480" as="targetPoint" />
          </mxGeometry>
        </mxCell>
        <mxCell id="KnG4rFUmeMydKyy9aAMd-15" value="&lt;span style=&quot;color: rgb(0, 16, 128); font-family: Consolas, &amp;quot;Courier New&amp;quot;, monospace; font-size: 14px; text-align: left; white-space-collapse: preserve;&quot;&gt;coin_5&lt;/span&gt;" style="edgeLabel;html=1;align=center;verticalAlign=middle;resizable=0;points=[];" vertex="1" connectable="0" parent="KnG4rFUmeMydKyy9aAMd-5">
          <mxGeometry x="-0.18" y="1" relative="1" as="geometry">
            <mxPoint x="33" y="-9" as="offset" />
          </mxGeometry>
        </mxCell>
        <mxCell id="KnG4rFUmeMydKyy9aAMd-6" value="" style="endArrow=classic;html=1;rounded=0;" edge="1" parent="1">
          <mxGeometry width="50" height="50" relative="1" as="geometry">
            <mxPoint x="180" y="520" as="sourcePoint" />
            <mxPoint x="380" y="520" as="targetPoint" />
          </mxGeometry>
        </mxCell>
        <mxCell id="KnG4rFUmeMydKyy9aAMd-16" value="&lt;span style=&quot;color: rgb(0, 16, 128); font-family: Consolas, &amp;quot;Courier New&amp;quot;, monospace; font-size: 14px; text-align: left; white-space-collapse: preserve;&quot;&gt;coin_10&lt;/span&gt;" style="edgeLabel;html=1;align=center;verticalAlign=middle;resizable=0;points=[];" vertex="1" connectable="0" parent="KnG4rFUmeMydKyy9aAMd-6">
          <mxGeometry x="0.21" relative="1" as="geometry">
            <mxPoint y="-10" as="offset" />
          </mxGeometry>
        </mxCell>
        <mxCell id="KnG4rFUmeMydKyy9aAMd-7" value="" style="endArrow=classic;html=1;rounded=0;" edge="1" parent="1">
          <mxGeometry width="50" height="50" relative="1" as="geometry">
            <mxPoint x="180" y="560" as="sourcePoint" />
            <mxPoint x="380" y="560" as="targetPoint" />
          </mxGeometry>
        </mxCell>
        <mxCell id="KnG4rFUmeMydKyy9aAMd-17" value="&lt;span style=&quot;color: rgb(0, 16, 128); font-family: Consolas, &amp;quot;Courier New&amp;quot;, monospace; font-size: 14px; text-align: left; white-space-collapse: preserve;&quot;&gt;coin_25&lt;/span&gt;" style="edgeLabel;html=1;align=center;verticalAlign=middle;resizable=0;points=[];" vertex="1" connectable="0" parent="KnG4rFUmeMydKyy9aAMd-7">
          <mxGeometry x="0.19" y="2" relative="1" as="geometry">
            <mxPoint x="1" y="-8" as="offset" />
          </mxGeometry>
        </mxCell>
        <mxCell id="KnG4rFUmeMydKyy9aAMd-8" value="" style="endArrow=classic;html=1;rounded=0;" edge="1" parent="1">
          <mxGeometry width="50" height="50" relative="1" as="geometry">
            <mxPoint x="180" y="600" as="sourcePoint" />
            <mxPoint x="380" y="600" as="targetPoint" />
          </mxGeometry>
        </mxCell>
        <mxCell id="KnG4rFUmeMydKyy9aAMd-18" value="&lt;span style=&quot;color: rgb(0, 16, 128); font-family: Consolas, &amp;quot;Courier New&amp;quot;, monospace; font-size: 14px; text-align: left; white-space-collapse: preserve;&quot;&gt;coin_return&lt;/span&gt;" style="edgeLabel;html=1;align=center;verticalAlign=middle;resizable=0;points=[];" vertex="1" connectable="0" parent="KnG4rFUmeMydKyy9aAMd-8">
          <mxGeometry x="0.21" y="2" relative="1" as="geometry">
            <mxPoint y="-8" as="offset" />
          </mxGeometry>
        </mxCell>
        <mxCell id="KnG4rFUmeMydKyy9aAMd-9" value="" style="endArrow=classic;html=1;rounded=0;" edge="1" parent="1">
          <mxGeometry width="50" height="50" relative="1" as="geometry">
            <mxPoint x="520" y="440" as="sourcePoint" />
            <mxPoint x="720" y="440" as="targetPoint" />
          </mxGeometry>
        </mxCell>
        <mxCell id="KnG4rFUmeMydKyy9aAMd-19" value="&lt;span style=&quot;color: rgb(0, 16, 128); font-family: Consolas, &amp;quot;Courier New&amp;quot;, monospace; font-size: 14px; text-align: left; white-space-collapse: preserve;&quot;&gt;return_5&lt;/span&gt;" style="edgeLabel;html=1;align=center;verticalAlign=middle;resizable=0;points=[];" vertex="1" connectable="0" parent="KnG4rFUmeMydKyy9aAMd-9">
          <mxGeometry x="-0.34" y="4" relative="1" as="geometry">
            <mxPoint y="-6" as="offset" />
          </mxGeometry>
        </mxCell>
        <mxCell id="KnG4rFUmeMydKyy9aAMd-10" value="" style="endArrow=classic;html=1;rounded=0;" edge="1" parent="1">
          <mxGeometry width="50" height="50" relative="1" as="geometry">
            <mxPoint x="520" y="470" as="sourcePoint" />
            <mxPoint x="720" y="470" as="targetPoint" />
          </mxGeometry>
        </mxCell>
        <mxCell id="KnG4rFUmeMydKyy9aAMd-20" value="&lt;span style=&quot;color: rgb(0, 16, 128); font-family: Consolas, &amp;quot;Courier New&amp;quot;, monospace; font-size: 14px; text-align: left; white-space-collapse: preserve;&quot;&gt;return_10&lt;/span&gt;" style="edgeLabel;html=1;align=center;verticalAlign=middle;resizable=0;points=[];" vertex="1" connectable="0" parent="KnG4rFUmeMydKyy9aAMd-10">
          <mxGeometry x="-0.24" relative="1" as="geometry">
            <mxPoint x="-6" y="-10" as="offset" />
          </mxGeometry>
        </mxCell>
        <mxCell id="KnG4rFUmeMydKyy9aAMd-11" value="" style="endArrow=classic;html=1;rounded=0;" edge="1" parent="1">
          <mxGeometry width="50" height="50" relative="1" as="geometry">
            <mxPoint x="520" y="510" as="sourcePoint" />
            <mxPoint x="720" y="510" as="targetPoint" />
          </mxGeometry>
        </mxCell>
        <mxCell id="KnG4rFUmeMydKyy9aAMd-21" value="&lt;span style=&quot;color: rgb(0, 16, 128); font-family: Consolas, &amp;quot;Courier New&amp;quot;, monospace; font-size: 14px; text-align: left; white-space-collapse: preserve;&quot;&gt;return_25&lt;/span&gt;" style="edgeLabel;html=1;align=center;verticalAlign=middle;resizable=0;points=[];" vertex="1" connectable="0" parent="KnG4rFUmeMydKyy9aAMd-11">
          <mxGeometry x="-0.26" y="1" relative="1" as="geometry">
            <mxPoint x="-4" y="-9" as="offset" />
          </mxGeometry>
        </mxCell>
        <mxCell id="KnG4rFUmeMydKyy9aAMd-12" value="" style="endArrow=classic;html=1;rounded=0;" edge="1" parent="1">
          <mxGeometry width="50" height="50" relative="1" as="geometry">
            <mxPoint x="520" y="540" as="sourcePoint" />
            <mxPoint x="720" y="540" as="targetPoint" />
          </mxGeometry>
        </mxCell>
        <mxCell id="KnG4rFUmeMydKyy9aAMd-24" value="&lt;span style=&quot;color: rgba(0, 0, 0, 0); font-family: monospace; font-size: 0px; text-align: start; background-color: rgb(236, 236, 236);&quot;&gt;%3CmxGraphModel%3E%3Croot%3E%3CmxCell%20id%3D%220%22%2F%3E%3CmxCell%20id%3D%221%22%20parent%3D%220%22%2F%3E%3CmxCell%20id%3D%222%22%20value%3D%22%22%20style%3D%22endArrow%3Dclassic%3Bhtml%3D1%3Brounded%3D0%3B%22%20edge%3D%221%22%20parent%3D%221%22%3E%3CmxGeometry%20width%3D%2250%22%20height%3D%2250%22%20relative%3D%221%22%20as%3D%22geometry%22%3E%3CmxPoint%20x%3D%22540%22%20y%3D%22180%22%20as%3D%22sourcePoint%22%2F%3E%3CmxPoint%20x%3D%22740%22%20y%3D%22180%22%20as%3D%22targetPoint%22%2F%3E%3C%2FmxGeometry%3E%3C%2FmxCell%3E%3C%2Froot%3E%3C%2FmxGraphModel%3E&lt;/span&gt;" style="edgeLabel;html=1;align=center;verticalAlign=middle;resizable=0;points=[];" vertex="1" connectable="0" parent="KnG4rFUmeMydKyy9aAMd-12">
          <mxGeometry x="-0.38" y="1" relative="1" as="geometry">
            <mxPoint as="offset" />
          </mxGeometry>
        </mxCell>
        <mxCell id="KnG4rFUmeMydKyy9aAMd-25" value="&lt;span style=&quot;color: rgb(0, 16, 128); font-family: Consolas, &amp;quot;Courier New&amp;quot;, monospace; font-size: 14px; text-align: left; white-space-collapse: preserve;&quot;&gt;dispense_item&lt;/span&gt;" style="edgeLabel;html=1;align=center;verticalAlign=middle;resizable=0;points=[];" vertex="1" connectable="0" parent="KnG4rFUmeMydKyy9aAMd-12">
          <mxGeometry x="-0.32" y="1" relative="1" as="geometry">
            <mxPoint x="12" y="-9" as="offset" />
          </mxGeometry>
        </mxCell>
        <mxCell id="KnG4rFUmeMydKyy9aAMd-22" value="" style="endArrow=classic;html=1;rounded=0;" edge="1" parent="1">
          <mxGeometry width="50" height="50" relative="1" as="geometry">
            <mxPoint x="520" y="570" as="sourcePoint" />
            <mxPoint x="720" y="570" as="targetPoint" />
          </mxGeometry>
        </mxCell>
        <mxCell id="KnG4rFUmeMydKyy9aAMd-23" value="&lt;span style=&quot;color: rgba(0, 0, 0, 0); font-family: monospace; font-size: 0px; text-align: start; background-color: rgb(236, 236, 236);&quot;&gt;%3CmxGraphModel%3E%3Croot%3E%3CmxCell%20id%3D%220%22%2F%3E%3CmxCell%20id%3D%221%22%20parent%3D%220%22%2F%3E%3CmxCell%20id%3D%222%22%20value%3D%22%22%20style%3D%22endArrow%3Dclassic%3Bhtml%3D1%3Brounded%3D0%3B%22%20edge%3D%221%22%20parent%3D%221%22%3E%3CmxGeometry%20width%3D%2250%22%20height%3D%2250%22%20relative%3D%221%22%20as%3D%22geometry%22%3E%3CmxPoint%20x%3D%22540%22%20y%3D%22180%22%20as%3D%22sourcePoint%22%2F%3E%3CmxPoint%20x%3D%22740%22%20y%3D%22180%22%20as%3D%22targetPoint%22%2F%3E%3C%2FmxGeometry%3E%3C%2FmxCell%3E%3C%2Froot%3E%3C%2FmxGraphModel%3E&lt;/span&gt;" style="edgeLabel;html=1;align=center;verticalAlign=middle;resizable=0;points=[];" vertex="1" connectable="0" parent="KnG4rFUmeMydKyy9aAMd-22">
          <mxGeometry x="-0.39" y="3" relative="1" as="geometry">
            <mxPoint as="offset" />
          </mxGeometry>
        </mxCell>
        <mxCell id="KnG4rFUmeMydKyy9aAMd-26" value="&lt;span style=&quot;color: rgb(0, 16, 128); font-family: Consolas, &amp;quot;Courier New&amp;quot;, monospace; font-size: 14px; text-align: left; white-space-collapse: preserve;&quot;&gt;amount_display&lt;/span&gt;" style="edgeLabel;html=1;align=center;verticalAlign=middle;resizable=0;points=[];" vertex="1" connectable="0" parent="KnG4rFUmeMydKyy9aAMd-22">
          <mxGeometry x="-0.18" relative="1" as="geometry">
            <mxPoint y="-10" as="offset" />
          </mxGeometry>
        </mxCell>
        <mxCell id="KnG4rFUmeMydKyy9aAMd-27" value="" style="endArrow=none;html=1;rounded=0;" edge="1" parent="1">
          <mxGeometry width="50" height="50" relative="1" as="geometry">
            <mxPoint x="670" y="590" as="sourcePoint" />
            <mxPoint x="700" y="560" as="targetPoint" />
          </mxGeometry>
        </mxCell>
        <mxCell id="KnG4rFUmeMydKyy9aAMd-28" value="6" style="edgeLabel;html=1;align=center;verticalAlign=middle;resizable=0;points=[];" vertex="1" connectable="0" parent="KnG4rFUmeMydKyy9aAMd-27">
          <mxGeometry x="0.6333" y="1" relative="1" as="geometry">
            <mxPoint x="-4" y="-5" as="offset" />
          </mxGeometry>
        </mxCell>
      </root>
    </mxGraphModel>
  </diagram>
  <diagram id="0YrOAmbkSy5akB-qSBVz" name="state_machine">
    <mxGraphModel dx="3030" dy="2528" grid="1" gridSize="10" guides="1" tooltips="1" connect="1" arrows="1" fold="1" page="1" pageScale="1" pageWidth="850" pageHeight="1100" math="0" shadow="0">
      <root>
        <mxCell id="0" />
        <mxCell id="1" parent="0" />
        <mxCell id="TVpN9uFimq276Ua6HQ9l-33" value="" style="endArrow=classic;html=1;rounded=0;entryX=0.99;entryY=0.384;entryDx=0;entryDy=0;entryPerimeter=0;curved=1;" parent="1" target="5bVAExUQRSb6Ex8JUWl7-28" edge="1">
          <mxGeometry width="50" height="50" relative="1" as="geometry">
            <mxPoint x="410" y="-440" as="sourcePoint" />
            <mxPoint x="390" y="-420" as="targetPoint" />
            <Array as="points">
              <mxPoint x="50" y="-575" />
            </Array>
          </mxGeometry>
        </mxCell>
        <mxCell id="TVpN9uFimq276Ua6HQ9l-34" value="&lt;span style=&quot;white-space-collapse: preserve; color: rgb(0, 16, 128); font-family: Consolas, &amp;quot;Courier New&amp;quot;, monospace; font-size: 14px;&quot;&gt;coin_25&lt;/span&gt;&lt;span style=&quot;font-size: 12px;&quot;&gt;&lt;br&gt;&lt;/span&gt;&lt;div style=&quot;&quot;&gt;&lt;span style=&quot;color: rgb(0, 16, 128); font-family: Consolas, &amp;quot;Courier New&amp;quot;, monospace; font-size: 14px; white-space-collapse: preserve;&quot;&gt;______&lt;br&gt;dispense_item&lt;/span&gt;&lt;/div&gt;" style="edgeLabel;html=1;align=center;verticalAlign=middle;resizable=0;points=[];labelBackgroundColor=none;container=0;" parent="TVpN9uFimq276Ua6HQ9l-33" vertex="1" connectable="0">
          <mxGeometry x="-0.6228" y="6" relative="1" as="geometry">
            <mxPoint as="offset" />
          </mxGeometry>
        </mxCell>
        <mxCell id="5bVAExUQRSb6Ex8JUWl7-1" value="&lt;div style=&quot;color: rgb(59, 59, 59); background-color: rgb(255, 255, 255); font-family: Consolas, &amp;quot;Courier New&amp;quot;, monospace; font-size: 14px; line-height: 19px; white-space: pre;&quot;&gt;&lt;span style=&quot;text-align: left;&quot;&gt;C_0&lt;/span&gt;&lt;/div&gt;" style="ellipse;whiteSpace=wrap;html=1;container=0;" parent="1" vertex="1">
          <mxGeometry x="-23.669724770642233" y="-764.468085106383" width="187.52293577981652" height="138.08510638297872" as="geometry" />
        </mxCell>
        <mxCell id="5bVAExUQRSb6Ex8JUWl7-2" value="" style="endArrow=classic;html=1;rounded=0;strokeWidth=1;startSize=6;opacity=70;jumpSize=1;strokeColor=default;shadow=1;entryX=0.45;entryY=0.013;entryDx=0;entryDy=0;entryPerimeter=0;" parent="1" target="5bVAExUQRSb6Ex8JUWl7-1" edge="1">
          <mxGeometry width="50" height="50" relative="1" as="geometry">
            <mxPoint x="56.69724770642199" y="-890" as="sourcePoint" />
            <mxPoint x="70.09174311926608" y="-664.0425531914893" as="targetPoint" />
          </mxGeometry>
        </mxCell>
        <mxCell id="5bVAExUQRSb6Ex8JUWl7-3" value="&lt;span style=&quot;font-size: 12px; text-wrap-mode: wrap; background-color: rgb(236, 236, 236);&quot;&gt;rst_n&lt;br&gt;&lt;br&gt;&lt;/span&gt;" style="edgeLabel;html=1;align=center;verticalAlign=middle;resizable=0;points=[];container=0;" parent="5bVAExUQRSb6Ex8JUWl7-2" vertex="1" connectable="0">
          <mxGeometry x="-0.0908" y="1" relative="1" as="geometry">
            <mxPoint x="-28" y="-6" as="offset" />
          </mxGeometry>
        </mxCell>
        <mxCell id="5bVAExUQRSb6Ex8JUWl7-4" value="" style="endArrow=classic;html=1;rounded=0;strokeWidth=1;startSize=6;opacity=70;jumpSize=1;strokeColor=default;shadow=1;curved=1;exitX=0.957;exitY=0.707;exitDx=0;exitDy=0;exitPerimeter=0;" parent="1" source="5bVAExUQRSb6Ex8JUWl7-1" target="5bVAExUQRSb6Ex8JUWl7-19" edge="1">
          <mxGeometry width="50" height="50" relative="1" as="geometry">
            <mxPoint x="190.64220183486236" y="-620.7340425531916" as="sourcePoint" />
            <mxPoint x="311.19266055045864" y="-500.85106382978734" as="targetPoint" />
            <Array as="points">
              <mxPoint x="244.2201834862385" y="-601.2765957446809" />
            </Array>
          </mxGeometry>
        </mxCell>
        <mxCell id="5bVAExUQRSb6Ex8JUWl7-13" value="" style="endArrow=classic;html=1;rounded=0;curved=1;entryX=0.192;entryY=0.912;entryDx=0;entryDy=0;entryPerimeter=0;exitX=0.906;exitY=0.238;exitDx=0;exitDy=0;exitPerimeter=0;" parent="1" source="5bVAExUQRSb6Ex8JUWl7-21" target="5bVAExUQRSb6Ex8JUWl7-12" edge="1">
          <mxGeometry width="50" height="50" relative="1" as="geometry">
            <mxPoint x="-479.08256880733944" y="-61.48936170212767" as="sourcePoint" />
            <mxPoint x="-438.89908256880733" y="-497.7127659574469" as="targetPoint" />
            <Array as="points">
              <mxPoint x="-291.5596330275229" y="-174.468085106383" />
            </Array>
          </mxGeometry>
        </mxCell>
        <mxCell id="5bVAExUQRSb6Ex8JUWl7-14" value="&lt;span style=&quot;color: rgba(0, 0, 0, 0); font-family: monospace; font-size: 0px; text-align: start; background-color: rgb(236, 236, 236);&quot;&gt;%3CmxGraphModel%3E%3Croot%3E%3CmxCell%20id%3D%220%22%2F%3E%3CmxCell%20id%3D%221%22%20parent%3D%220%22%2F%3E%3CmxCell%20id%3D%222%22%20value%3D%22%22%20style%3D%22endArrow%3Dclassic%3Bhtml%3D1%3Brounded%3D0%3BentryX%3D0.912%3BentryY%3D0.761%3BentryDx%3D0%3BentryDy%3D0%3BentryPerimeter%3D0%3BexitX%3D0.5%3BexitY%3D1%3BexitDx%3D0%3BexitDy%3D0%3Bcurved%3D1%3B%22%20edge%3D%221%22%20parent%3D%221%22%3E%3CmxGeometry%20width%3D%2250%22%20height%3D%2250%22%20relative%3D%221%22%20as%3D%22geometry%22%3E%3CmxPoint%20x%3D%22900%22%20y%3D%22500%22%20as%3D%22sourcePoint%22%2F%3E%3CmxPoint%20x%3D%22545%22%20y%3D%22648%22%20as%3D%22targetPoint%22%2F%3E%3CArray%20as%3D%22points%22%3E%3CmxPoint%20x%3D%22830%22%20y%3D%22650%22%2F%3E%3C%2FArray%3E%3C%2FmxGeometry%3E%3C%2FmxCell%3E%3CmxCell%20id%3D%223%22%20value%3D%22emergency%22%20style%3D%22edgeLabel%3Bhtml%3D1%3Balign%3Dcenter%3BverticalAlign%3Dmiddle%3Bresizable%3D0%3Bpoints%3D%5B%5D%3B%22%20vertex%3D%221%22%20connectable%3D%220%22%20parent%3D%222%22%3E%3CmxGeometry%20x%3D%22-0.0774%22%20y%3D%22-41%22%20relative%3D%221%22%20as%3D%22geometry%22%3E%3CmxPoint%20y%3D%2216%22%20as%3D%22offset%22%2F%3E%3C%2FmxGeometry%3E%3C%2FmxCell%3E%3C%2Froot%3E%3C%2FmxGraphModel%3E&lt;/span&gt;" style="edgeLabel;html=1;align=center;verticalAlign=middle;resizable=0;points=[];container=0;" parent="5bVAExUQRSb6Ex8JUWl7-13" vertex="1" connectable="0">
          <mxGeometry x="0.2141" y="1" relative="1" as="geometry">
            <mxPoint x="-25" y="-1" as="offset" />
          </mxGeometry>
        </mxCell>
        <mxCell id="5bVAExUQRSb6Ex8JUWl7-15" value="&lt;span style=&quot;color: rgb(0, 16, 128); font-family: Consolas, &amp;quot;Courier New&amp;quot;, monospace; font-size: 14px; white-space-collapse: preserve;&quot;&gt;coin_10&lt;/span&gt;" style="edgeLabel;html=1;align=center;verticalAlign=middle;resizable=0;points=[];container=0;" parent="5bVAExUQRSb6Ex8JUWl7-13" vertex="1" connectable="0">
          <mxGeometry x="-0.0666" y="-4" relative="1" as="geometry">
            <mxPoint x="-47" y="-7" as="offset" />
          </mxGeometry>
        </mxCell>
        <mxCell id="5bVAExUQRSb6Ex8JUWl7-18" value="&lt;div style=&quot;color: rgb(59, 59, 59); background-color: rgb(255, 255, 255); font-family: Consolas, &amp;quot;Courier New&amp;quot;, monospace; font-size: 14px; line-height: 19px; white-space: pre;&quot;&gt;&lt;span style=&quot;color: #001080;&quot;&gt;coin_10&lt;/span&gt;&lt;/div&gt;" style="text;html=1;align=center;verticalAlign=middle;whiteSpace=wrap;rounded=0;container=0;" parent="1" vertex="1">
          <mxGeometry x="244.2201834862385" y="-576.1702127659574" width="174.12844036697248" height="37.659574468085104" as="geometry" />
        </mxCell>
        <mxCell id="5bVAExUQRSb6Ex8JUWl7-19" value="C_10" style="ellipse;labelBackgroundColor=default;container=0;" parent="1" vertex="1">
          <mxGeometry x="391.559633027523" y="-482.02127659574467" width="214.3119266055046" height="200.85106382978722" as="geometry" />
        </mxCell>
        <mxCell id="5bVAExUQRSb6Ex8JUWl7-22" value="" style="endArrow=classic;html=1;rounded=0;strokeWidth=1;startSize=6;opacity=70;jumpSize=1;strokeColor=default;shadow=1;curved=0;exitX=0.937;exitY=0.727;exitDx=0;exitDy=0;exitPerimeter=0;entryX=0;entryY=0.5;entryDx=0;entryDy=0;" parent="1" source="5bVAExUQRSb6Ex8JUWl7-21" target="5bVAExUQRSb6Ex8JUWl7-26" edge="1">
          <mxGeometry width="50" height="50" relative="1" as="geometry">
            <mxPoint x="-327.56403669724784" y="-9.236702127659669" as="sourcePoint" />
            <mxPoint x="-197.79816513761472" y="239.7872340425531" as="targetPoint" />
            <Array as="points" />
          </mxGeometry>
        </mxCell>
        <mxCell id="TVpN9uFimq276Ua6HQ9l-25" value="&lt;span style=&quot;color: rgb(0, 16, 128); font-family: Consolas, &amp;quot;Courier New&amp;quot;, monospace; font-size: 14px; white-space-collapse: preserve;&quot;&gt;coin_5&lt;/span&gt;" style="edgeLabel;html=1;align=center;verticalAlign=middle;resizable=0;points=[];labelBackgroundColor=default;container=0;" parent="5bVAExUQRSb6Ex8JUWl7-22" vertex="1" connectable="0">
          <mxGeometry x="0.0082" y="-1" relative="1" as="geometry">
            <mxPoint as="offset" />
          </mxGeometry>
        </mxCell>
        <mxCell id="5bVAExUQRSb6Ex8JUWl7-26" value="&lt;div style=&quot;color: rgb(59, 59, 59); background-color: rgb(255, 255, 255); font-family: Consolas, &amp;quot;Courier New&amp;quot;, monospace; font-size: 14px; line-height: 19px; white-space: pre;&quot;&gt;&lt;span style=&quot;color: rgb(0, 0, 0); font-family: Helvetica; font-size: 12px; white-space-collapse: collapse;&quot;&gt;C_20&lt;/span&gt;&lt;/div&gt;" style="ellipse;whiteSpace=wrap;html=1;container=0;" parent="1" vertex="1">
          <mxGeometry x="-184.40366972477068" y="101.70212765957444" width="227.7064220183486" height="188.29787234042553" as="geometry" />
        </mxCell>
        <mxCell id="5bVAExUQRSb6Ex8JUWl7-29" value="" style="endArrow=classic;html=1;rounded=0;exitX=1.018;exitY=0.581;exitDx=0;exitDy=0;entryX=-0.006;entryY=0.369;entryDx=0;entryDy=0;entryPerimeter=0;exitPerimeter=0;curved=1;" parent="1" source="5bVAExUQRSb6Ex8JUWl7-28" target="5bVAExUQRSb6Ex8JUWl7-19" edge="1">
          <mxGeometry width="50" height="50" relative="1" as="geometry">
            <mxPoint x="-85.28440366972484" y="-558.5957446808511" as="sourcePoint" />
            <mxPoint x="16.513761467889935" y="-581.1914893617022" as="targetPoint" />
            <Array as="points">
              <mxPoint x="-60" y="-420" />
            </Array>
          </mxGeometry>
        </mxCell>
        <mxCell id="TVpN9uFimq276Ua6HQ9l-9" value="&lt;span style=&quot;color: rgb(0, 16, 128); font-family: Consolas, &amp;quot;Courier New&amp;quot;, monospace; font-size: 14px; white-space-collapse: preserve;&quot;&gt;coin_5&lt;/span&gt;" style="edgeLabel;html=1;align=center;verticalAlign=middle;resizable=0;points=[];labelBackgroundColor=none;container=0;" parent="5bVAExUQRSb6Ex8JUWl7-29" vertex="1" connectable="0">
          <mxGeometry x="0.0072" y="5" relative="1" as="geometry">
            <mxPoint x="-288" y="-60" as="offset" />
          </mxGeometry>
        </mxCell>
        <mxCell id="5bVAExUQRSb6Ex8JUWl7-31" value="" style="endArrow=classic;html=1;rounded=0;entryX=0.588;entryY=0.019;entryDx=0;entryDy=0;entryPerimeter=0;curved=1;" parent="1" source="5bVAExUQRSb6Ex8JUWl7-1" target="5bVAExUQRSb6Ex8JUWl7-12" edge="1">
          <mxGeometry width="50" height="50" relative="1" as="geometry">
            <mxPoint x="-37.06422018348621" y="-425.5319148936171" as="sourcePoint" />
            <mxPoint x="29.908256880733916" y="-488.29787234042556" as="targetPoint" />
            <Array as="points">
              <mxPoint x="-197.79816513761472" y="-563.6170212765958" />
            </Array>
          </mxGeometry>
        </mxCell>
        <mxCell id="TVpN9uFimq276Ua6HQ9l-6" value="&lt;span style=&quot;color: rgb(0, 16, 128); font-family: Consolas, &amp;quot;Courier New&amp;quot;, monospace; font-size: 14px; white-space-collapse: preserve;&quot;&gt;coin_25&lt;/span&gt;" style="edgeLabel;html=1;align=center;verticalAlign=middle;resizable=0;points=[];labelBackgroundColor=none;container=0;" parent="5bVAExUQRSb6Ex8JUWl7-31" vertex="1" connectable="0">
          <mxGeometry x="-0.2263" y="8" relative="1" as="geometry">
            <mxPoint x="28" y="-37" as="offset" />
          </mxGeometry>
        </mxCell>
        <mxCell id="5bVAExUQRSb6Ex8JUWl7-33" value="" style="endArrow=classic;html=1;rounded=0;entryX=0.982;entryY=0.379;entryDx=0;entryDy=0;curved=1;entryPerimeter=0;" parent="1" source="5bVAExUQRSb6Ex8JUWl7-19" target="5bVAExUQRSb6Ex8JUWl7-26" edge="1">
          <mxGeometry width="50" height="50" relative="1" as="geometry">
            <mxPoint x="43.30275229357801" y="-500.85106382978734" as="sourcePoint" />
            <mxPoint x="-432.20183486238534" y="-315.0638297872341" as="targetPoint" />
            <Array as="points">
              <mxPoint x="498.7155963302753" y="26.38297872340422" />
            </Array>
          </mxGeometry>
        </mxCell>
        <mxCell id="5bVAExUQRSb6Ex8JUWl7-34" value="&lt;span style=&quot;color: rgb(0, 16, 128); font-family: Consolas, &amp;quot;Courier New&amp;quot;, monospace; font-size: 14px; white-space-collapse: preserve;&quot;&gt;coin_10&lt;/span&gt;" style="edgeLabel;html=1;align=center;verticalAlign=middle;resizable=0;points=[];container=0;" parent="5bVAExUQRSb6Ex8JUWl7-33" vertex="1" connectable="0">
          <mxGeometry x="-0.0774" y="-41" relative="1" as="geometry">
            <mxPoint x="8" y="-194" as="offset" />
          </mxGeometry>
        </mxCell>
        <mxCell id="5bVAExUQRSb6Ex8JUWl7-37" value="" style="endArrow=classic;html=1;rounded=0;exitX=0.224;exitY=0.093;exitDx=0;exitDy=0;curved=1;exitPerimeter=0;" parent="1" source="5bVAExUQRSb6Ex8JUWl7-26" target="5bVAExUQRSb6Ex8JUWl7-12" edge="1">
          <mxGeometry width="50" height="50" relative="1" as="geometry">
            <mxPoint x="43.30275229357801" y="-497.7127659574469" as="sourcePoint" />
            <mxPoint x="-432.20183486238534" y="-311.92553191489367" as="targetPoint" />
            <Array as="points">
              <mxPoint x="-184.40366972477068" y="-136.8085106382979" />
            </Array>
          </mxGeometry>
        </mxCell>
        <mxCell id="5bVAExUQRSb6Ex8JUWl7-38" value="&lt;span style=&quot;color: rgb(0, 16, 128); font-family: Consolas, &amp;quot;Courier New&amp;quot;, monospace; font-size: 14px; white-space-collapse: preserve; background-color: rgb(236, 236, 236);&quot;&gt;coin_5&lt;/span&gt;" style="edgeLabel;html=1;align=center;verticalAlign=middle;resizable=0;points=[];container=0;" parent="5bVAExUQRSb6Ex8JUWl7-37" vertex="1" connectable="0">
          <mxGeometry x="-0.0774" y="-41" relative="1" as="geometry">
            <mxPoint y="16" as="offset" />
          </mxGeometry>
        </mxCell>
        <mxCell id="5bVAExUQRSb6Ex8JUWl7-39" value="" style="endArrow=classic;html=1;rounded=0;exitX=0;exitY=0;exitDx=0;exitDy=0;entryX=0.312;entryY=0.955;entryDx=0;entryDy=0;entryPerimeter=0;" parent="1" source="5bVAExUQRSb6Ex8JUWl7-21" target="5bVAExUQRSb6Ex8JUWl7-28" edge="1">
          <mxGeometry width="50" height="50" relative="1" as="geometry">
            <mxPoint x="-197.79816513761472" y="-111.70212765957456" as="sourcePoint" />
            <mxPoint x="-130.82568807339453" y="-174.468085106383" as="targetPoint" />
          </mxGeometry>
        </mxCell>
        <mxCell id="TVpN9uFimq276Ua6HQ9l-7" value="&lt;span style=&quot;color: rgb(0, 16, 128); font-family: Consolas, &amp;quot;Courier New&amp;quot;, monospace; font-size: 14px; white-space-collapse: preserve;&quot;&gt;coin_10&lt;/span&gt;" style="edgeLabel;html=1;align=center;verticalAlign=middle;resizable=0;points=[];container=0;" parent="5bVAExUQRSb6Ex8JUWl7-39" vertex="1" connectable="0">
          <mxGeometry x="0.0806" y="2" relative="1" as="geometry">
            <mxPoint as="offset" />
          </mxGeometry>
        </mxCell>
        <mxCell id="TVpN9uFimq276Ua6HQ9l-2" value="" style="endArrow=classic;html=1;rounded=0;exitX=0;exitY=0.5;exitDx=0;exitDy=0;entryX=0.883;entryY=0.209;entryDx=0;entryDy=0;entryPerimeter=0;curved=1;" parent="1" source="5bVAExUQRSb6Ex8JUWl7-1" target="5bVAExUQRSb6Ex8JUWl7-28" edge="1">
          <mxGeometry width="50" height="50" relative="1" as="geometry">
            <mxPoint x="-224.5871559633028" y="-633.9148936170213" as="sourcePoint" />
            <mxPoint x="187.96330275229354" y="-664.0425531914893" as="targetPoint" />
            <Array as="points" />
          </mxGeometry>
        </mxCell>
        <mxCell id="TVpN9uFimq276Ua6HQ9l-4" value="&lt;span style=&quot;color: rgba(0, 0, 0, 0); font-family: monospace; font-size: 0px; text-align: start; background-color: rgb(236, 236, 236);&quot;&gt;%3CmxGraphModel%3E%3Croot%3E%3CmxCell%20id%3D%220%22%2F%3E%3CmxCell%20id%3D%221%22%20parent%3D%220%22%2F%3E%3CmxCell%20id%3D%222%22%20value%3D%22%22%20style%3D%22endArrow%3Dclassic%3Bhtml%3D1%3Brounded%3D0%3BexitX%3D1%3BexitY%3D0.5%3BexitDx%3D0%3BexitDy%3D0%3BentryX%3D0.05%3BentryY%3D0.681%3BentryDx%3D0%3BentryDy%3D0%3BentryPerimeter%3D0%3Bcurved%3D1%3B%22%20edge%3D%221%22%20parent%3D%221%22%3E%3CmxGeometry%20width%3D%2250%22%20height%3D%2250%22%20relative%3D%221%22%20as%3D%22geometry%22%3E%3CmxPoint%20x%3D%2260%22%20y%3D%22518%22%20as%3D%22sourcePoint%22%2F%3E%3CmxPoint%20x%3D%22368%22%20y%3D%22494%22%20as%3D%22targetPoint%22%2F%3E%3CArray%20as%3D%22points%22%2F%3E%3C%2FmxGeometry%3E%3C%2FmxCell%3E%3CmxCell%20id%3D%223%22%20value%3D%22!emergency%26lt%3Bbr%26gt%3B%26lt%3Bdiv%20style%3D%26quot%3Bfont-size%3A%2012px%3B%20text-wrap-mode%3A%20wrap%3B%20background-color%3A%20rgb(236%2C%20236%2C%20236)%3B%26quot%3B%26gt%3B----------%26lt%3Bbr%26gt%3B%26lt%3Bdiv%20style%3D%26quot%3Bcolor%3A%20rgb(59%2C%2059%2C%2059)%3B%20background-color%3A%20rgb(255%2C%20255%2C%20255)%3B%20font-family%3A%20Consolas%2C%20%26amp%3Bquot%3BCourier%20New%26amp%3Bquot%3B%2C%20monospace%3B%20font-size%3A%2014px%3B%20line-height%3A%2019px%3B%20white-space%3A%20pre%3B%26quot%3B%26gt%3B%26lt%3Bdiv%26gt%3B%26lt%3Bspan%20style%3D%26quot%3Bcolor%3A%20rgb(0%2C%2016%2C%20128)%3B%26quot%3B%26gt%3Bload_value%26lt%3B%2Fspan%26gt%3B%26lt%3Bspan%20style%3D%26quot%3Bcolor%3A%20rgb(0%2C%200%2C%200)%3B%26quot%3B%26gt%3B%3D%26lt%3B%2Fspan%26gt%3B%26lt%3Bspan%20style%3D%26quot%3Bcolor%3A%20rgb(9%2C%20134%2C%2088)%3B%26quot%3B%26gt%3B8&#39;d30%26lt%3B%2Fspan%26gt%3B%3B%26lt%3B%2Fdiv%26gt%3B%26lt%3Bdiv%26gt%3B%26amp%3Bnbsp%3B%20%26amp%3Bnbsp%3B%26lt%3Bspan%20style%3D%26quot%3Bcolor%3A%20rgb(0%2C%2016%2C%20128)%3B%26quot%3B%26gt%3Bload%26lt%3B%2Fspan%26gt%3B%26lt%3Bspan%20style%3D%26quot%3Bcolor%3A%20rgb(0%2C%200%2C%200)%3B%26quot%3B%26gt%3B%3D%26lt%3B%2Fspan%26gt%3B%26lt%3Bspan%20style%3D%26quot%3Bcolor%3A%20rgb(9%2C%20134%2C%2088)%3B%26quot%3B%26gt%3B1&#39;b1%26lt%3B%2Fspan%26gt%3B%3B%26lt%3B%2Fdiv%26gt%3B%26lt%3B%2Fdiv%26gt%3B%26lt%3B%2Fdiv%26gt%3B%22%20style%3D%22edgeLabel%3Bhtml%3D1%3Balign%3Dcenter%3BverticalAlign%3Dmiddle%3Bresizable%3D0%3Bpoints%3D%5B%5D%3B%22%20vertex%3D%221%22%20connectable%3D%220%22%20parent%3D%222%22%3E%3CmxGeometry%20x%3D%22-0.226%22%20y%3D%22-3%22%20relative%3D%221%22%20as%3D%22geometry%22%3E%3CmxPoint%20x%3D%2250%22%20y%3D%2234%22%20as%3D%22offset%22%2F%3E%3C%2FmxGeometry%3E%3C%2FmxCell%3E%3C%2Froot%3E%3C%2FmxGraphModel%3E&lt;/span&gt;" style="edgeLabel;html=1;align=center;verticalAlign=middle;resizable=0;points=[];container=0;" parent="TVpN9uFimq276Ua6HQ9l-2" vertex="1" connectable="0">
          <mxGeometry x="-0.0809" y="-3" relative="1" as="geometry">
            <mxPoint y="-1" as="offset" />
          </mxGeometry>
        </mxCell>
        <mxCell id="TVpN9uFimq276Ua6HQ9l-5" value="&lt;span style=&quot;color: rgb(0, 16, 128); font-family: Consolas, &amp;quot;Courier New&amp;quot;, monospace; font-size: 14px; white-space-collapse: preserve;&quot;&gt;coin_5&lt;/span&gt;" style="edgeLabel;html=1;align=center;verticalAlign=middle;resizable=0;points=[];container=0;" parent="TVpN9uFimq276Ua6HQ9l-2" vertex="1" connectable="0">
          <mxGeometry x="-0.0712" y="-4" relative="1" as="geometry">
            <mxPoint x="-24" y="-11" as="offset" />
          </mxGeometry>
        </mxCell>
        <mxCell id="TVpN9uFimq276Ua6HQ9l-10" value="" style="endArrow=classic;html=1;rounded=0;exitX=0.439;exitY=0.011;exitDx=0;exitDy=0;exitPerimeter=0;entryX=0;entryY=0;entryDx=0;entryDy=0;curved=1;" parent="1" source="5bVAExUQRSb6Ex8JUWl7-28" target="5bVAExUQRSb6Ex8JUWl7-1" edge="1">
          <mxGeometry width="50" height="50" relative="1" as="geometry">
            <mxPoint x="-171.00917431192664" y="-362.76595744680856" as="sourcePoint" />
            <mxPoint x="-104.03669724770646" y="-425.5319148936171" as="targetPoint" />
            <Array as="points">
              <mxPoint x="-237.98165137614683" y="-827.2340425531916" />
            </Array>
          </mxGeometry>
        </mxCell>
        <mxCell id="TVpN9uFimq276Ua6HQ9l-11" value="&lt;span style=&quot;font-size: 12px;&quot;&gt;C_25&lt;br&gt;-----------&lt;br&gt;dispense_item&lt;/span&gt;" style="edgeLabel;html=1;align=center;verticalAlign=middle;resizable=0;points=[];labelBackgroundColor=none;container=0;" parent="TVpN9uFimq276Ua6HQ9l-10" vertex="1" connectable="0">
          <mxGeometry x="0.1462" y="-37" relative="1" as="geometry">
            <mxPoint x="-125" y="40" as="offset" />
          </mxGeometry>
        </mxCell>
        <mxCell id="TVpN9uFimq276Ua6HQ9l-12" value="" style="endArrow=classic;html=1;rounded=0;exitX=1;exitY=0.5;exitDx=0;exitDy=0;entryX=0.201;entryY=0.931;entryDx=0;entryDy=0;entryPerimeter=0;curved=1;" parent="1" source="5bVAExUQRSb6Ex8JUWl7-21" target="5bVAExUQRSb6Ex8JUWl7-19" edge="1">
          <mxGeometry width="50" height="50" relative="1" as="geometry">
            <mxPoint x="-171.00917431192664" y="-187.02127659574467" as="sourcePoint" />
            <mxPoint x="-104.03669724770646" y="-249.78723404255322" as="targetPoint" />
            <Array as="points">
              <mxPoint x="70.09174311926608" y="-86.59574468085111" />
            </Array>
          </mxGeometry>
        </mxCell>
        <mxCell id="TVpN9uFimq276Ua6HQ9l-13" value="&lt;span style=&quot;white-space-collapse: preserve; color: rgb(0, 16, 128); font-family: Consolas, &amp;quot;Courier New&amp;quot;, monospace; font-size: 14px;&quot;&gt;coin_25&lt;/span&gt;&lt;span style=&quot;font-size: 12px;&quot;&gt;&lt;br&gt;&lt;/span&gt;&lt;div&gt;&lt;span style=&quot;color: rgb(0, 16, 128); font-family: Consolas, &amp;quot;Courier New&amp;quot;, monospace; font-size: 14px; white-space-collapse: preserve;&quot;&gt;______&lt;br&gt;dispense_item&lt;/span&gt;&lt;/div&gt;" style="edgeLabel;html=1;align=center;verticalAlign=middle;resizable=0;points=[];labelBackgroundColor=none;container=0;" parent="TVpN9uFimq276Ua6HQ9l-12" vertex="1" connectable="0">
          <mxGeometry x="0.1291" y="38" relative="1" as="geometry">
            <mxPoint x="-387" y="93" as="offset" />
          </mxGeometry>
        </mxCell>
        <mxCell id="TVpN9uFimq276Ua6HQ9l-14" value="" style="endArrow=classic;html=1;rounded=0;exitX=0.726;exitY=0.042;exitDx=0;exitDy=0;exitPerimeter=0;entryX=0.705;entryY=0.982;entryDx=0;entryDy=0;entryPerimeter=0;curved=1;" parent="1" source="5bVAExUQRSb6Ex8JUWl7-26" target="5bVAExUQRSb6Ex8JUWl7-1" edge="1">
          <mxGeometry width="50" height="50" relative="1" as="geometry">
            <mxPoint x="-10.275229357798139" y="114.25531914893611" as="sourcePoint" />
            <mxPoint x="56.69724770642199" y="51.48936170212755" as="targetPoint" />
            <Array as="points">
              <mxPoint x="230.82568807339442" y="-136.8085106382979" />
            </Array>
          </mxGeometry>
        </mxCell>
        <mxCell id="TVpN9uFimq276Ua6HQ9l-15" value="&lt;span style=&quot;color: rgb(0, 16, 128); font-family: Consolas, &amp;quot;Courier New&amp;quot;, monospace; font-size: 14px; white-space-collapse: preserve;&quot;&gt;coin_10&lt;/span&gt;&lt;br style=&quot;color: rgb(0, 16, 128); font-family: Consolas, &amp;quot;Courier New&amp;quot;, monospace; font-size: 14px; white-space-collapse: preserve;&quot;&gt;&lt;span style=&quot;color: rgb(0, 16, 128); font-family: Consolas, &amp;quot;Courier New&amp;quot;, monospace; font-size: 14px; white-space-collapse: preserve;&quot;&gt;--------&lt;/span&gt;&lt;br style=&quot;color: rgb(0, 16, 128); font-family: Consolas, &amp;quot;Courier New&amp;quot;, monospace; font-size: 14px; white-space-collapse: preserve;&quot;&gt;&lt;span style=&quot;color: rgb(0, 16, 128); font-family: Consolas, &amp;quot;Courier New&amp;quot;, monospace; font-size: 14px; white-space-collapse: preserve;&quot;&gt;dispense_item&lt;/span&gt;" style="edgeLabel;html=1;align=center;verticalAlign=middle;resizable=0;points=[];labelBackgroundColor=none;container=0;" parent="TVpN9uFimq276Ua6HQ9l-14" vertex="1" connectable="0">
          <mxGeometry x="0.1131" y="41" relative="1" as="geometry">
            <mxPoint x="-70" y="300" as="offset" />
          </mxGeometry>
        </mxCell>
        <mxCell id="TVpN9uFimq276Ua6HQ9l-16" value="" style="endArrow=classic;html=1;rounded=0;exitX=0.019;exitY=0.671;exitDx=0;exitDy=0;exitPerimeter=0;entryX=0.349;entryY=0.971;entryDx=0;entryDy=0;entryPerimeter=0;curved=1;" parent="1" source="5bVAExUQRSb6Ex8JUWl7-26" target="5bVAExUQRSb6Ex8JUWl7-21" edge="1">
          <mxGeometry width="50" height="50" relative="1" as="geometry">
            <mxPoint x="-171.00917431192664" y="-61.48936170212767" as="sourcePoint" />
            <mxPoint x="-104.03669724770646" y="-124.25531914893622" as="targetPoint" />
            <Array as="points">
              <mxPoint x="-519.2660550458716" y="264.89361702127644" />
            </Array>
          </mxGeometry>
        </mxCell>
        <mxCell id="TVpN9uFimq276Ua6HQ9l-17" value="&lt;span style=&quot;color: rgb(0, 16, 128); font-family: Consolas, &amp;quot;Courier New&amp;quot;, monospace; font-size: 14px; white-space-collapse: preserve;&quot;&gt;coin_25&lt;/span&gt;&lt;span style=&quot;font-size: 12px;&quot;&gt;&lt;br&gt;&lt;/span&gt;&lt;div&gt;&lt;span style=&quot;color: rgb(0, 16, 128); font-family: Consolas, &amp;quot;Courier New&amp;quot;, monospace; font-size: 14px; white-space-collapse: preserve;&quot;&gt;______&lt;br/&gt;dispense_item&lt;/span&gt;&lt;/div&gt;" style="edgeLabel;html=1;align=center;verticalAlign=middle;resizable=0;points=[];container=0;" parent="TVpN9uFimq276Ua6HQ9l-16" vertex="1" connectable="0">
          <mxGeometry x="-0.01" y="-34" relative="1" as="geometry">
            <mxPoint x="180" y="56" as="offset" />
          </mxGeometry>
        </mxCell>
        <mxCell id="TVpN9uFimq276Ua6HQ9l-18" value="" style="endArrow=classic;html=1;rounded=0;exitX=1;exitY=0;exitDx=0;exitDy=0;entryX=0.436;entryY=1.025;entryDx=0;entryDy=0;entryPerimeter=0;curved=1;" parent="1" source="5bVAExUQRSb6Ex8JUWl7-12" target="5bVAExUQRSb6Ex8JUWl7-1" edge="1">
          <mxGeometry width="50" height="50" relative="1" as="geometry">
            <mxPoint x="-171.00917431192664" y="-312.5531914893618" as="sourcePoint" />
            <mxPoint x="-104.03669724770646" y="-375.3191489361702" as="targetPoint" />
            <Array as="points">
              <mxPoint x="70.09174311926608" y="-500.85106382978734" />
            </Array>
          </mxGeometry>
        </mxCell>
        <mxCell id="TVpN9uFimq276Ua6HQ9l-19" value="&lt;span style=&quot;color: rgb(0, 16, 128); font-family: Consolas, &amp;quot;Courier New&amp;quot;, monospace; font-size: 14px; white-space-collapse: preserve; background-color: rgb(255, 255, 255);&quot;&gt;coin_5&lt;/span&gt;&lt;br style=&quot;color: rgb(0, 16, 128); font-family: Consolas, &amp;quot;Courier New&amp;quot;, monospace; font-size: 14px; white-space-collapse: preserve; background-color: rgb(255, 255, 255);&quot;&gt;&lt;span style=&quot;color: rgb(0, 16, 128); font-family: Consolas, &amp;quot;Courier New&amp;quot;, monospace; font-size: 14px; white-space-collapse: preserve; background-color: rgb(255, 255, 255);&quot;&gt;--------&lt;/span&gt;&lt;br style=&quot;color: rgb(0, 16, 128); font-family: Consolas, &amp;quot;Courier New&amp;quot;, monospace; font-size: 14px; white-space-collapse: preserve; background-color: rgb(255, 255, 255);&quot;&gt;&lt;span style=&quot;color: rgb(0, 16, 128); font-family: Consolas, &amp;quot;Courier New&amp;quot;, monospace; font-size: 14px; white-space-collapse: preserve; background-color: rgb(255, 255, 255);&quot;&gt;dispense_item&lt;/span&gt;" style="edgeLabel;html=1;align=center;verticalAlign=middle;resizable=0;points=[];labelBackgroundColor=none;container=0;" parent="TVpN9uFimq276Ua6HQ9l-18" vertex="1" connectable="0">
          <mxGeometry x="0.3749" y="11" relative="1" as="geometry">
            <mxPoint x="-26" y="123" as="offset" />
          </mxGeometry>
        </mxCell>
        <mxCell id="TVpN9uFimq276Ua6HQ9l-20" value="" style="endArrow=classic;html=1;rounded=0;entryX=0.759;entryY=0.927;entryDx=0;entryDy=0;entryPerimeter=0;exitX=0.048;exitY=0.317;exitDx=0;exitDy=0;exitPerimeter=0;" parent="1" source="5bVAExUQRSb6Ex8JUWl7-12" target="5bVAExUQRSb6Ex8JUWl7-28" edge="1">
          <mxGeometry width="50" height="50" relative="1" as="geometry">
            <mxPoint x="-171.00917431192664" y="-312.5531914893618" as="sourcePoint" />
            <mxPoint x="-104.03669724770646" y="-375.3191489361702" as="targetPoint" />
          </mxGeometry>
        </mxCell>
        <mxCell id="TVpN9uFimq276Ua6HQ9l-21" value="&lt;span style=&quot;color: rgb(0, 16, 128); font-family: Consolas, &amp;quot;Courier New&amp;quot;, monospace; font-size: 14px; white-space-collapse: preserve;&quot;&gt;coin_10&lt;br&gt;--------&lt;br&gt;dispense_item&lt;/span&gt;" style="edgeLabel;html=1;align=center;verticalAlign=middle;resizable=0;points=[];labelBackgroundColor=none;container=0;" parent="TVpN9uFimq276Ua6HQ9l-20" vertex="1" connectable="0">
          <mxGeometry x="-0.1814" y="5" relative="1" as="geometry">
            <mxPoint x="-36" y="19" as="offset" />
          </mxGeometry>
        </mxCell>
        <mxCell id="TVpN9uFimq276Ua6HQ9l-27" value="" style="endArrow=classic;html=1;rounded=0;exitX=1;exitY=1;exitDx=0;exitDy=0;" parent="1" source="5bVAExUQRSb6Ex8JUWl7-12" target="5bVAExUQRSb6Ex8JUWl7-26" edge="1">
          <mxGeometry width="50" height="50" relative="1" as="geometry">
            <mxPoint x="10" y="-300" as="sourcePoint" />
            <mxPoint x="60" y="-350" as="targetPoint" />
          </mxGeometry>
        </mxCell>
        <mxCell id="TVpN9uFimq276Ua6HQ9l-29" value="&lt;span style=&quot;white-space-collapse: preserve; color: rgb(0, 16, 128); font-family: Consolas, &amp;quot;Courier New&amp;quot;, monospace; font-size: 14px;&quot;&gt;coin_25&lt;/span&gt;&lt;span style=&quot;font-size: 12px;&quot;&gt;&lt;br&gt;&lt;/span&gt;&lt;div style=&quot;&quot;&gt;&lt;span style=&quot;color: rgb(0, 16, 128); font-family: Consolas, &amp;quot;Courier New&amp;quot;, monospace; font-size: 14px; white-space-collapse: preserve;&quot;&gt;______&lt;br&gt;dispense_item&lt;/span&gt;&lt;/div&gt;" style="edgeLabel;html=1;align=center;verticalAlign=middle;resizable=0;points=[];labelBackgroundColor=none;container=0;" parent="TVpN9uFimq276Ua6HQ9l-27" vertex="1" connectable="0">
          <mxGeometry x="-0.4857" y="-1" relative="1" as="geometry">
            <mxPoint x="40" y="-32" as="offset" />
          </mxGeometry>
        </mxCell>
        <mxCell id="TVpN9uFimq276Ua6HQ9l-30" value="" style="endArrow=classic;html=1;rounded=0;exitX=0.958;exitY=0.67;exitDx=0;exitDy=0;exitPerimeter=0;entryX=0.005;entryY=0.711;entryDx=0;entryDy=0;entryPerimeter=0;curved=1;" parent="1" source="5bVAExUQRSb6Ex8JUWl7-19" target="5bVAExUQRSb6Ex8JUWl7-21" edge="1">
          <mxGeometry width="50" height="50" relative="1" as="geometry">
            <mxPoint x="120" y="-270" as="sourcePoint" />
            <mxPoint x="170" y="-320" as="targetPoint" />
            <Array as="points">
              <mxPoint x="580" y="320" />
              <mxPoint x="-660" y="450" />
            </Array>
          </mxGeometry>
        </mxCell>
        <mxCell id="TVpN9uFimq276Ua6HQ9l-32" value="&lt;span style=&quot;color: rgb(0, 16, 128); font-family: Consolas, &amp;quot;Courier New&amp;quot;, monospace; font-size: 14px; white-space-collapse: preserve;&quot;&gt;coin_5&lt;/span&gt;" style="edgeLabel;html=1;align=center;verticalAlign=middle;resizable=0;points=[];container=0;" parent="TVpN9uFimq276Ua6HQ9l-30" vertex="1" connectable="0">
          <mxGeometry x="-0.9213" y="-2" relative="1" as="geometry">
            <mxPoint y="1" as="offset" />
          </mxGeometry>
        </mxCell>
        <mxCell id="TVpN9uFimq276Ua6HQ9l-87" value="" style="endArrow=classic;html=1;rounded=0;exitX=0;exitY=0;exitDx=0;exitDy=0;entryX=0.286;entryY=0.09;entryDx=0;entryDy=0;curved=1;entryPerimeter=0;" parent="1" source="5bVAExUQRSb6Ex8JUWl7-28" target="5bVAExUQRSb6Ex8JUWl7-1" edge="1">
          <mxGeometry width="50" height="50" relative="1" as="geometry">
            <mxPoint x="-510" y="-543.7659574468084" as="sourcePoint" />
            <mxPoint x="-73" y="-626.7659574468084" as="targetPoint" />
            <Array as="points">
              <mxPoint x="-340" y="-1060" />
            </Array>
          </mxGeometry>
        </mxCell>
        <mxCell id="TVpN9uFimq276Ua6HQ9l-88" value="&lt;span style=&quot;color: rgba(0, 0, 0, 0); font-family: monospace; font-size: 0px; text-align: start; background-color: rgb(236, 236, 236);&quot;&gt;%3CmxGraphModel%3E%3Croot%3E%3CmxCell%20id%3D%220%22%2F%3E%3CmxCell%20id%3D%221%22%20parent%3D%220%22%2F%3E%3CmxCell%20id%3D%222%22%20value%3D%22%22%20style%3D%22group%22%20vertex%3D%221%22%20connectable%3D%220%22%20parent%3D%221%22%3E%3CmxGeometry%20x%3D%22-440%22%20y%3D%2260%22%20width%3D%221460%22%20height%3D%221180%22%20as%3D%22geometry%22%2F%3E%3C%2FmxCell%3E%3CmxCell%20id%3D%223%22%20value%3D%22%26lt%3Bdiv%20style%3D%26quot%3Bcolor%3A%20rgb(59%2C%2059%2C%2059)%3B%20background-color%3A%20rgb(255%2C%20255%2C%20255)%3B%20font-family%3A%20Consolas%2C%20%26amp%3Bquot%3BCourier%20New%26amp%3Bquot%3B%2C%20monospace%3B%20font-size%3A%2014px%3B%20line-height%3A%2019px%3B%20white-space%3A%20pre%3B%26quot%3B%26gt%3B%26lt%3Bspan%20style%3D%26quot%3Btext-align%3A%20left%3B%26quot%3B%26gt%3BC_0%26lt%3B%2Fspan%26gt%3B%26lt%3B%2Fdiv%26gt%3B%22%20style%3D%22ellipse%3BwhiteSpace%3Dwrap%3Bhtml%3D1%3B%22%20vertex%3D%221%22%20parent%3D%222%22%3E%3CmxGeometry%20x%3D%22656.3302752293578%22%20y%3D%22125.53191489361701%22%20width%3D%22187.52293577981652%22%20height%3D%22138.08510638297872%22%20as%3D%22geometry%22%2F%3E%3C%2FmxCell%3E%3CmxCell%20id%3D%224%22%20value%3D%22%22%20style%3D%22endArrow%3Dclassic%3Bhtml%3D1%3Brounded%3D0%3BstrokeWidth%3D1%3BstartSize%3D6%3Bopacity%3D70%3BjumpSize%3D1%3BstrokeColor%3Ddefault%3Bshadow%3D1%3BentryX%3D0.45%3BentryY%3D0.013%3BentryDx%3D0%3BentryDy%3D0%3BentryPerimeter%3D0%3B%22%20edge%3D%221%22%20parent%3D%222%22%20target%3D%223%22%3E%3CmxGeometry%20width%3D%2250%22%20height%3D%2250%22%20relative%3D%221%22%20as%3D%22geometry%22%3E%3CmxPoint%20x%3D%22736.697247706422%22%20as%3D%22sourcePoint%22%2F%3E%3CmxPoint%20x%3D%22750.0917431192661%22%20y%3D%22225.9574468085106%22%20as%3D%22targetPoint%22%2F%3E%3C%2FmxGeometry%3E%3C%2FmxCell%3E%3CmxCell%20id%3D%225%22%20value%3D%22%26lt%3Bspan%20style%3D%26quot%3Bfont-size%3A%2012px%3B%20text-wrap-mode%3A%20wrap%3B%20background-color%3A%20rgb(236%2C%20236%2C%20236)%3B%26quot%3B%26gt%3Brst_n%26lt%3Bbr%26gt%3B%26lt%3Bbr%26gt%3B%26lt%3B%2Fspan%26gt%3B%22%20style%3D%22edgeLabel%3Bhtml%3D1%3Balign%3Dcenter%3BverticalAlign%3Dmiddle%3Bresizable%3D0%3Bpoints%3D%5B%5D%3B%22%20vertex%3D%221%22%20connectable%3D%220%22%20parent%3D%224%22%3E%3CmxGeometry%20x%3D%22-0.0908%22%20y%3D%221%22%20relative%3D%221%22%20as%3D%22geometry%22%3E%3CmxPoint%20x%3D%22-28%22%20y%3D%22-6%22%20as%3D%22offset%22%2F%3E%3C%2FmxGeometry%3E%3C%2FmxCell%3E%3CmxCell%20id%3D%226%22%20value%3D%22%22%20style%3D%22endArrow%3Dclassic%3Bhtml%3D1%3Brounded%3D0%3BstrokeWidth%3D1%3BstartSize%3D6%3Bopacity%3D70%3BjumpSize%3D1%3BstrokeColor%3Ddefault%3Bshadow%3D1%3Bcurved%3D1%3BexitX%3D0.957%3BexitY%3D0.707%3BexitDx%3D0%3BexitDy%3D0%3BexitPerimeter%3D0%3B%22%20edge%3D%221%22%20parent%3D%222%22%20source%3D%223%22%20target%3D%2213%22%3E%3CmxGeometry%20width%3D%2250%22%20height%3D%2250%22%20relative%3D%221%22%20as%3D%22geometry%22%3E%3CmxPoint%20x%3D%22870.6422018348624%22%20y%3D%22269.2659574468085%22%20as%3D%22sourcePoint%22%2F%3E%3CmxPoint%20x%3D%22991.1926605504586%22%20y%3D%22389.1489361702127%22%20as%3D%22targetPoint%22%2F%3E%3CArray%20as%3D%22points%22%3E%3CmxPoint%20x%3D%22924.2201834862385%22%20y%3D%22288.7234042553191%22%2F%3E%3C%2FArray%3E%3C%2FmxGeometry%3E%3C%2FmxCell%3E%3CmxCell%20id%3D%227%22%20value%3D%22%22%20style%3D%22group%22%20vertex%3D%221%22%20connectable%3D%220%22%20parent%3D%222%22%3E%3CmxGeometry%20x%3D%22442.01834862385317%22%20y%3D%22477.02127659574467%22%20width%3D%22227.7064220183486%22%20height%3D%22194.57446808510636%22%20as%3D%22geometry%22%2F%3E%3C%2FmxCell%3E%3CmxCell%20id%3D%228%22%20value%3D%22C_25%22%20style%3D%22ellipse%3BlabelBackgroundColor%3Ddefault%3B%22%20vertex%3D%221%22%20parent%3D%227%22%3E%3CmxGeometry%20width%3D%22227.7064220183486%22%20height%3D%22194.57446808510636%22%20as%3D%22geometry%22%2F%3E%3C%2FmxCell%3E%3CmxCell%20id%3D%229%22%20value%3D%22%22%20style%3D%22endArrow%3Dclassic%3Bhtml%3D1%3Brounded%3D0%3Bcurved%3D1%3BentryX%3D0.192%3BentryY%3D0.912%3BentryDx%3D0%3BentryDy%3D0%3BentryPerimeter%3D0%3BexitX%3D0.906%3BexitY%3D0.238%3BexitDx%3D0%3BexitDy%3D0%3BexitPerimeter%3D0%3B%22%20edge%3D%221%22%20parent%3D%222%22%20source%3D%2215%22%20target%3D%228%22%3E%3CmxGeometry%20width%3D%2250%22%20height%3D%2250%22%20relative%3D%221%22%20as%3D%22geometry%22%3E%3CmxPoint%20x%3D%22200.91743119266056%22%20y%3D%22828.5106382978723%22%20as%3D%22sourcePoint%22%2F%3E%3CmxPoint%20x%3D%22241.10091743119264%22%20y%3D%22392.28723404255317%22%20as%3D%22targetPoint%22%2F%3E%3CArray%20as%3D%22points%22%3E%3CmxPoint%20x%3D%22388.4403669724771%22%20y%3D%22715.531914893617%22%2F%3E%3C%2FArray%3E%3C%2FmxGeometry%3E%3C%2FmxCell%3E%3CmxCell%20id%3D%2210%22%20value%3D%22%26lt%3Bspan%20style%3D%26quot%3Bcolor%3A%20rgba(0%2C%200%2C%200%2C%200)%3B%20font-family%3A%20monospace%3B%20font-size%3A%200px%3B%20text-align%3A%20start%3B%20background-color%3A%20rgb(236%2C%20236%2C%20236)%3B%26quot%3B%26gt%3B%253CmxGraphModel%253E%253Croot%253E%253CmxCell%2520id%253D%25220%2522%252F%253E%253CmxCell%2520id%253D%25221%2522%2520parent%253D%25220%2522%252F%253E%253CmxCell%2520id%253D%25222%2522%2520value%253D%2522%2522%2520style%253D%2522endArrow%253Dclassic%253Bhtml%253D1%253Brounded%253D0%253BentryX%253D0.912%253BentryY%253D0.761%253BentryDx%253D0%253BentryDy%253D0%253BentryPerimeter%253D0%253BexitX%253D0.5%253BexitY%253D1%253BexitDx%253D0%253BexitDy%253D0%253Bcurved%253D1%253B%2522%2520edge%253D%25221%2522%2520parent%253D%25221%2522%253E%253CmxGeometry%2520width%253D%252250%2522%2520height%253D%252250%2522%2520relative%253D%25221%2522%2520as%253D%2522geometry%2522%253E%253CmxPoint%2520x%253D%2522900%2522%2520y%253D%2522500%2522%2520as%253D%2522sourcePoint%2522%252F%253E%253CmxPoint%2520x%253D%2522545%2522%2520y%253D%2522648%2522%2520as%253D%2522targetPoint%2522%252F%253E%253CArray%2520as%253D%2522points%2522%253E%253CmxPoint%2520x%253D%2522830%2522%2520y%253D%2522650%2522%252F%253E%253C%252FArray%253E%253C%252FmxGeometry%253E%253C%252FmxCell%253E%253CmxCell%2520id%253D%25223%2522%2520value%253D%2522emergency%2522%2520style%253D%2522edgeLabel%253Bhtml%253D1%253Balign%253Dcenter%253BverticalAlign%253Dmiddle%253Bresizable%253D0%253Bpoints%253D%255B%255D%253B%2522%2520vertex%253D%25221%2522%2520connectable%253D%25220%2522%2520parent%253D%25222%2522%253E%253CmxGeometry%2520x%253D%2522-0.0774%2522%2520y%253D%2522-41%2522%2520relative%253D%25221%2522%2520as%253D%2522geometry%2522%253E%253CmxPoint%2520y%253D%252216%2522%2520as%253D%2522offset%2522%252F%253E%253C%252FmxGeometry%253E%253C%252FmxCell%253E%253C%252Froot%253E%253C%252FmxGraphModel%253E%26lt%3B%2Fspan%26gt%3B%22%20style%3D%22edgeLabel%3Bhtml%3D1%3Balign%3Dcenter%3BverticalAlign%3Dmiddle%3Bresizable%3D0%3Bpoints%3D%5B%5D%3B%22%20vertex%3D%221%22%20connectable%3D%220%22%20parent%3D%229%22%3E%3CmxGeometry%20x%3D%220.2141%22%20y%3D%221%22%20relative%3D%221%22%20as%3D%22geometry%22%3E%3CmxPoint%20x%3D%22-25%22%20y%3D%22-1%22%20as%3D%22offset%22%2F%3E%3C%2FmxGeometry%3E%3C%2FmxCell%3E%3CmxCell%20id%3D%2211%22%20value%3D%22%26lt%3Bspan%20style%3D%26quot%3Bcolor%3A%20rgb(0%2C%2016%2C%20128)%3B%20font-family%3A%20Consolas%2C%20%26amp%3Bquot%3BCourier%20New%26amp%3Bquot%3B%2C%20monospace%3B%20font-size%3A%2014px%3B%20white-space-collapse%3A%20preserve%3B%26quot%3B%26gt%3Bcoin_10%26lt%3B%2Fspan%26gt%3B%22%20style%3D%22edgeLabel%3Bhtml%3D1%3Balign%3Dcenter%3BverticalAlign%3Dmiddle%3Bresizable%3D0%3Bpoints%3D%5B%5D%3B%22%20vertex%3D%221%22%20connectable%3D%220%22%20parent%3D%229%22%3E%3CmxGeometry%20x%3D%22-0.0666%22%20y%3D%22-4%22%20relative%3D%221%22%20as%3D%22geometry%22%3E%3CmxPoint%20x%3D%22-47%22%20y%3D%22-7%22%20as%3D%22offset%22%2F%3E%3C%2FmxGeometry%3E%3C%2FmxCell%3E%3CmxCell%20id%3D%2212%22%20value%3D%22%26lt%3Bdiv%20style%3D%26quot%3Bcolor%3A%20rgb(59%2C%2059%2C%2059)%3B%20background-color%3A%20rgb(255%2C%20255%2C%20255)%3B%20font-family%3A%20Consolas%2C%20%26amp%3Bquot%3BCourier%20New%26amp%3Bquot%3B%2C%20monospace%3B%20font-size%3A%2014px%3B%20line-height%3A%2019px%3B%20white-space%3A%20pre%3B%26quot%3B%26gt%3B%26lt%3Bspan%20style%3D%26quot%3Bcolor%3A%20%23001080%3B%26quot%3B%26gt%3Bcoin_10%26lt%3B%2Fspan%26gt%3B%26lt%3B%2Fdiv%26gt%3B%22%20style%3D%22text%3Bhtml%3D1%3Balign%3Dcenter%3BverticalAlign%3Dmiddle%3BwhiteSpace%3Dwrap%3Brounded%3D0%3B%22%20vertex%3D%221%22%20parent%3D%222%22%3E%3CmxGeometry%20x%3D%22924.2201834862385%22%20y%3D%22313.82978723404256%22%20width%3D%22174.12844036697248%22%20height%3D%2237.659574468085104%22%20as%3D%22geometry%22%2F%3E%3C%2FmxCell%3E%3CmxCell%20id%3D%2213%22%20value%3D%22C_10%22%20style%3D%22ellipse%3BlabelBackgroundColor%3Ddefault%3B%22%20vertex%3D%221%22%20parent%3D%222%22%3E%3CmxGeometry%20x%3D%221071.559633027523%22%20y%3D%22407.9787234042553%22%20width%3D%22214.3119266055046%22%20height%3D%22200.85106382978722%22%20as%3D%22geometry%22%2F%3E%3C%2FmxCell%3E%3CmxCell%20id%3D%2214%22%20value%3D%22%22%20style%3D%22group%22%20vertex%3D%221%22%20connectable%3D%220%22%20parent%3D%222%22%3E%3CmxGeometry%20y%3D%22790.8510638297872%22%20width%3D%22227.7064220183486%22%20height%3D%22163.1914893617021%22%20as%3D%22geometry%22%2F%3E%3C%2FmxCell%3E%3CmxCell%20id%3D%2215%22%20value%3D%22C_15%22%20style%3D%22ellipse%3BlabelBackgroundColor%3Ddefault%3B%22%20vertex%3D%221%22%20parent%3D%2214%22%3E%3CmxGeometry%20width%3D%22227.7064220183486%22%20height%3D%22163.1914893617021%22%20as%3D%22geometry%22%2F%3E%3C%2FmxCell%3E%3CmxCell%20id%3D%2216%22%20value%3D%22%22%20style%3D%22endArrow%3Dclassic%3Bhtml%3D1%3Brounded%3D0%3BstrokeWidth%3D1%3BstartSize%3D6%3Bopacity%3D70%3BjumpSize%3D1%3BstrokeColor%3Ddefault%3Bshadow%3D1%3Bcurved%3D0%3BexitX%3D0.937%3BexitY%3D0.727%3BexitDx%3D0%3BexitDy%3D0%3BexitPerimeter%3D0%3BentryX%3D0%3BentryY%3D0.5%3BentryDx%3D0%3BentryDy%3D0%3B%22%20edge%3D%221%22%20parent%3D%222%22%20source%3D%2215%22%20target%3D%2218%22%3E%3CmxGeometry%20width%3D%2250%22%20height%3D%2250%22%20relative%3D%221%22%20as%3D%22geometry%22%3E%3CmxPoint%20x%3D%22352.43596330275216%22%20y%3D%22880.7632978723403%22%20as%3D%22sourcePoint%22%2F%3E%3CmxPoint%20x%3D%22482.2018348623853%22%20y%3D%221129.787234042553%22%20as%3D%22targetPoint%22%2F%3E%3CArray%20as%3D%22points%22%2F%3E%3C%2FmxGeometry%3E%3C%2FmxCell%3E%3CmxCell%20id%3D%2217%22%20value%3D%22%26lt%3Bspan%20style%3D%26quot%3Bcolor%3A%20rgb(0%2C%2016%2C%20128)%3B%20font-family%3A%20Consolas%2C%20%26amp%3Bquot%3BCourier%20New%26amp%3Bquot%3B%2C%20monospace%3B%20font-size%3A%2014px%3B%20white-space-collapse%3A%20preserve%3B%26quot%3B%26gt%3Bcoin_5%26lt%3B%2Fspan%26gt%3B%22%20style%3D%22edgeLabel%3Bhtml%3D1%3Balign%3Dcenter%3BverticalAlign%3Dmiddle%3Bresizable%3D0%3Bpoints%3D%5B%5D%3BlabelBackgroundColor%3Ddefault%3B%22%20vertex%3D%221%22%20connectable%3D%220%22%20parent%3D%2216%22%3E%3CmxGeometry%20x%3D%220.0082%22%20y%3D%22-1%22%20relative%3D%221%22%20as%3D%22geometry%22%3E%3CmxPoint%20as%3D%22offset%22%2F%3E%3C%2FmxGeometry%3E%3C%2FmxCell%3E%3CmxCell%20id%3D%2218%22%20value%3D%22%26lt%3Bdiv%20style%3D%26quot%3Bcolor%3A%20rgb(59%2C%2059%2C%2059)%3B%20background-color%3A%20rgb(255%2C%20255%2C%20255)%3B%20font-family%3A%20Consolas%2C%20%26amp%3Bquot%3BCourier%20New%26amp%3Bquot%3B%2C%20monospace%3B%20font-size%3A%2014px%3B%20line-height%3A%2019px%3B%20white-space%3A%20pre%3B%26quot%3B%26gt%3B%26lt%3Bspan%20style%3D%26quot%3Bcolor%3A%20rgb(0%2C%200%2C%200)%3B%20font-family%3A%20Helvetica%3B%20font-size%3A%2012px%3B%20white-space-collapse%3A%20collapse%3B%26quot%3B%26gt%3BC_20%26lt%3B%2Fspan%26gt%3B%26lt%3B%2Fdiv%26gt%3B%22%20style%3D%22ellipse%3BwhiteSpace%3Dwrap%3Bhtml%3D1%3B%22%20vertex%3D%221%22%20parent%3D%222%22%3E%3CmxGeometry%20x%3D%22495.5963302752293%22%20y%3D%22991.7021276595744%22%20width%3D%22227.7064220183486%22%20height%3D%22188.29787234042553%22%20as%3D%22geometry%22%2F%3E%3C%2FmxCell%3E%3CmxCell%20id%3D%2219%22%20value%3D%22%22%20style%3D%22group%22%20vertex%3D%221%22%20connectable%3D%220%22%20parent%3D%222%22%3E%3CmxGeometry%20x%3D%22140.6422018348624%22%20y%3D%22225.9574468085106%22%20width%3D%22241.10091743119264%22%20height%3D%22232.23404255319147%22%20as%3D%22geometry%22%2F%3E%3C%2FmxCell%3E%3CmxCell%20id%3D%2220%22%20value%3D%22C_5%22%20style%3D%22ellipse%3BlabelBackgroundColor%3Ddefault%3B%22%20vertex%3D%221%22%20parent%3D%2219%22%3E%3CmxGeometry%20width%3D%22241.10091743119264%22%20height%3D%22232.23404255319147%22%20as%3D%22geometry%22%2F%3E%3C%2FmxCell%3E%3CmxCell%20id%3D%2221%22%20value%3D%22%22%20style%3D%22endArrow%3Dclassic%3Bhtml%3D1%3Brounded%3D0%3BexitX%3D1.018%3BexitY%3D0.581%3BexitDx%3D0%3BexitDy%3D0%3BentryX%3D-0.006%3BentryY%3D0.369%3BentryDx%3D0%3BentryDy%3D0%3BentryPerimeter%3D0%3BexitPerimeter%3D0%3Bcurved%3D1%3B%22%20edge%3D%221%22%20parent%3D%222%22%20source%3D%2220%22%20target%3D%2213%22%3E%3CmxGeometry%20width%3D%2250%22%20height%3D%2250%22%20relative%3D%221%22%20as%3D%22geometry%22%3E%3CmxPoint%20x%3D%22594.7155963302752%22%20y%3D%22331.4042553191489%22%20as%3D%22sourcePoint%22%2F%3E%3CmxPoint%20x%3D%22696.5137614678899%22%20y%3D%22308.80851063829783%22%20as%3D%22targetPoint%22%2F%3E%3CArray%20as%3D%22points%22%3E%3CmxPoint%20x%3D%22620%22%20y%3D%22470%22%2F%3E%3C%2FArray%3E%3C%2FmxGeometry%3E%3C%2FmxCell%3E%3CmxCell%20id%3D%2222%22%20value%3D%22%26lt%3Bspan%20style%3D%26quot%3Bcolor%3A%20rgb(0%2C%2016%2C%20128)%3B%20font-family%3A%20Consolas%2C%20%26amp%3Bquot%3BCourier%20New%26amp%3Bquot%3B%2C%20monospace%3B%20font-size%3A%2014px%3B%20white-space-collapse%3A%20preserve%3B%26quot%3B%26gt%3Bcoin_5%26lt%3B%2Fspan%26gt%3B%22%20style%3D%22edgeLabel%3Bhtml%3D1%3Balign%3Dcenter%3BverticalAlign%3Dmiddle%3Bresizable%3D0%3Bpoints%3D%5B%5D%3BlabelBackgroundColor%3Dnone%3B%22%20vertex%3D%221%22%20connectable%3D%220%22%20parent%3D%2221%22%3E%3CmxGeometry%20x%3D%220.0072%22%20y%3D%225%22%20relative%3D%221%22%20as%3D%22geometry%22%3E%3CmxPoint%20x%3D%22-288%22%20y%3D%22-60%22%20as%3D%22offset%22%2F%3E%3C%2FmxGeometry%3E%3C%2FmxCell%3E%3CmxCell%20id%3D%2223%22%20value%3D%22%22%20style%3D%22endArrow%3Dclassic%3Bhtml%3D1%3Brounded%3D0%3BentryX%3D0.588%3BentryY%3D0.019%3BentryDx%3D0%3BentryDy%3D0%3BentryPerimeter%3D0%3Bcurved%3D1%3B%22%20edge%3D%221%22%20parent%3D%222%22%20source%3D%223%22%20target%3D%228%22%3E%3CmxGeometry%20width%3D%2250%22%20height%3D%2250%22%20relative%3D%221%22%20as%3D%22geometry%22%3E%3CmxPoint%20x%3D%22642.9357798165138%22%20y%3D%22464.46808510638294%22%20as%3D%22sourcePoint%22%2F%3E%3CmxPoint%20x%3D%22709.9082568807339%22%20y%3D%22401.70212765957444%22%20as%3D%22targetPoint%22%2F%3E%3CArray%20as%3D%22points%22%3E%3CmxPoint%20x%3D%22482.2018348623853%22%20y%3D%22326.3829787234042%22%2F%3E%3C%2FArray%3E%3C%2FmxGeometry%3E%3C%2FmxCell%3E%3CmxCell%20id%3D%2224%22%20value%3D%22%26lt%3Bspan%20style%3D%26quot%3Bcolor%3A%20rgb(0%2C%2016%2C%20128)%3B%20font-family%3A%20Consolas%2C%20%26amp%3Bquot%3BCourier%20New%26amp%3Bquot%3B%2C%20monospace%3B%20font-size%3A%2014px%3B%20white-space-collapse%3A%20preserve%3B%26quot%3B%26gt%3Bcoin_25%26lt%3B%2Fspan%26gt%3B%22%20style%3D%22edgeLabel%3Bhtml%3D1%3Balign%3Dcenter%3BverticalAlign%3Dmiddle%3Bresizable%3D0%3Bpoints%3D%5B%5D%3BlabelBackgroundColor%3Dnone%3B%22%20vertex%3D%221%22%20connectable%3D%220%22%20parent%3D%2223%22%3E%3CmxGeometry%20x%3D%22-0.2263%22%20y%3D%228%22%20relative%3D%221%22%20as%3D%22geometry%22%3E%3CmxPoint%20x%3D%2228%22%20y%3D%22-37%22%20as%3D%22offset%22%2F%3E%3C%2FmxGeometry%3E%3C%2FmxCell%3E%3CmxCell%20id%3D%2225%22%20value%3D%22%22%20style%3D%22endArrow%3Dclassic%3Bhtml%3D1%3Brounded%3D0%3BentryX%3D0.982%3BentryY%3D0.379%3BentryDx%3D0%3BentryDy%3D0%3Bcurved%3D1%3BentryPerimeter%3D0%3B%22%20edge%3D%221%22%20parent%3D%222%22%20source%3D%2213%22%20target%3D%2218%22%3E%3CmxGeometry%20width%3D%2250%22%20height%3D%2250%22%20relative%3D%221%22%20as%3D%22geometry%22%3E%3CmxPoint%20x%3D%22723.302752293578%22%20y%3D%22389.1489361702127%22%20as%3D%22sourcePoint%22%2F%3E%3CmxPoint%20x%3D%22247.79816513761466%22%20y%3D%22574.9361702127659%22%20as%3D%22targetPoint%22%2F%3E%3CArray%20as%3D%22points%22%3E%3CmxPoint%20x%3D%221178.7155963302753%22%20y%3D%22916.3829787234042%22%2F%3E%3C%2FArray%3E%3C%2FmxGeometry%3E%3C%2FmxCell%3E%3CmxCell%20id%3D%2226%22%20value%3D%22%26lt%3Bspan%20style%3D%26quot%3Bcolor%3A%20rgb(0%2C%2016%2C%20128)%3B%20font-family%3A%20Consolas%2C%20%26amp%3Bquot%3BCourier%20New%26amp%3Bquot%3B%2C%20monospace%3B%20font-size%3A%2014px%3B%20white-space-collapse%3A%20preserve%3B%26quot%3B%26gt%3Bcoin_10%26lt%3B%2Fspan%26gt%3B%22%20style%3D%22edgeLabel%3Bhtml%3D1%3Balign%3Dcenter%3BverticalAlign%3Dmiddle%3Bresizable%3D0%3Bpoints%3D%5B%5D%3B%22%20vertex%3D%221%22%20connectable%3D%220%22%20parent%3D%2225%22%3E%3CmxGeometry%20x%3D%22-0.0774%22%20y%3D%22-41%22%20relative%3D%221%22%20as%3D%22geometry%22%3E%3CmxPoint%20x%3D%228%22%20y%3D%22-194%22%20as%3D%22offset%22%2F%3E%3C%2FmxGeometry%3E%3C%2FmxCell%3E%3CmxCell%20id%3D%2227%22%20value%3D%22%22%20style%3D%22endArrow%3Dclassic%3Bhtml%3D1%3Brounded%3D0%3BexitX%3D0.224%3BexitY%3D0.093%3BexitDx%3D0%3BexitDy%3D0%3Bcurved%3D1%3BexitPerimeter%3D0%3B%22%20edge%3D%221%22%20parent%3D%222%22%20source%3D%2218%22%20target%3D%228%22%3E%3CmxGeometry%20width%3D%2250%22%20height%3D%2250%22%20relative%3D%221%22%20as%3D%22geometry%22%3E%3CmxPoint%20x%3D%22723.302752293578%22%20y%3D%22392.28723404255317%22%20as%3D%22sourcePoint%22%2F%3E%3CmxPoint%20x%3D%22247.79816513761466%22%20y%3D%22578.0744680851063%22%20as%3D%22targetPoint%22%2F%3E%3CArray%20as%3D%22points%22%3E%3CmxPoint%20x%3D%22495.5963302752293%22%20y%3D%22753.1914893617021%22%2F%3E%3C%2FArray%3E%3C%2FmxGeometry%3E%3C%2FmxCell%3E%3CmxCell%20id%3D%2228%22%20value%3D%22%26lt%3Bspan%20style%3D%26quot%3Bcolor%3A%20rgb(0%2C%2016%2C%20128)%3B%20font-family%3A%20Consolas%2C%20%26amp%3Bquot%3BCourier%20New%26amp%3Bquot%3B%2C%20monospace%3B%20font-size%3A%2014px%3B%20white-space-collapse%3A%20preserve%3B%20background-color%3A%20rgb(236%2C%20236%2C%20236)%3B%26quot%3B%26gt%3Bcoin_5%26lt%3B%2Fspan%26gt%3B%22%20style%3D%22edgeLabel%3Bhtml%3D1%3Balign%3Dcenter%3BverticalAlign%3Dmiddle%3Bresizable%3D0%3Bpoints%3D%5B%5D%3B%22%20vertex%3D%221%22%20connectable%3D%220%22%20parent%3D%2227%22%3E%3CmxGeometry%20x%3D%22-0.0774%22%20y%3D%22-41%22%20relative%3D%221%22%20as%3D%22geometry%22%3E%3CmxPoint%20y%3D%2216%22%20as%3D%22offset%22%2F%3E%3C%2FmxGeometry%3E%3C%2FmxCell%3E%3CmxCell%20id%3D%2229%22%20value%3D%22%22%20style%3D%22endArrow%3Dclassic%3Bhtml%3D1%3Brounded%3D0%3BexitX%3D0%3BexitY%3D0%3BexitDx%3D0%3BexitDy%3D0%3BentryX%3D0.312%3BentryY%3D0.955%3BentryDx%3D0%3BentryDy%3D0%3BentryPerimeter%3D0%3B%22%20edge%3D%221%22%20parent%3D%222%22%20source%3D%2215%22%20target%3D%2220%22%3E%3CmxGeometry%20width%3D%2250%22%20height%3D%2250%22%20relative%3D%221%22%20as%3D%22geometry%22%3E%3CmxPoint%20x%3D%22482.2018348623853%22%20y%3D%22778.2978723404254%22%20as%3D%22sourcePoint%22%2F%3E%3CmxPoint%20x%3D%22549.1743119266055%22%20y%3D%22715.531914893617%22%20as%3D%22targetPoint%22%2F%3E%3C%2FmxGeometry%3E%3C%2FmxCell%3E%3CmxCell%20id%3D%2230%22%20value%3D%22%26lt%3Bspan%20style%3D%26quot%3Bcolor%3A%20rgb(0%2C%2016%2C%20128)%3B%20font-family%3A%20Consolas%2C%20%26amp%3Bquot%3BCourier%20New%26amp%3Bquot%3B%2C%20monospace%3B%20font-size%3A%2014px%3B%20white-space-collapse%3A%20preserve%3B%26quot%3B%26gt%3Bcoin_10%26lt%3B%2Fspan%26gt%3B%22%20style%3D%22edgeLabel%3Bhtml%3D1%3Balign%3Dcenter%3BverticalAlign%3Dmiddle%3Bresizable%3D0%3Bpoints%3D%5B%5D%3B%22%20vertex%3D%221%22%20connectable%3D%220%22%20parent%3D%2229%22%3E%3CmxGeometry%20x%3D%220.0806%22%20y%3D%222%22%20relative%3D%221%22%20as%3D%22geometry%22%3E%3CmxPoint%20as%3D%22offset%22%2F%3E%3C%2FmxGeometry%3E%3C%2FmxCell%3E%3CmxCell%20id%3D%2231%22%20value%3D%22%26lt%3Bdiv%20style%3D%26quot%3Bcolor%3A%20%233b3b3b%3Bbackground-color%3A%20%23ffffff%3Bfont-family%3A%20Consolas%2C%20&#39;Courier%20New&#39;%2C%20monospace%3Bfont-weight%3A%20normal%3Bfont-size%3A%2014px%3Bline-height%3A%2019px%3Bwhite-space%3A%20pre%3B%26quot%3B%26gt%3B%26lt%3Bdiv%26gt%3B%26lt%3Bspan%20style%3D%26quot%3Bcolor%3A%20%233b3b3b%3B%26quot%3B%26gt%3B%26amp%3Bnbsp%3B%20%26amp%3Bnbsp%3B%20C_0%2C%26lt%3B%2Fspan%26gt%3B%26lt%3B%2Fdiv%26gt%3B%26lt%3Bdiv%26gt%3B%26lt%3Bspan%20style%3D%26quot%3Bcolor%3A%20%233b3b3b%3B%26quot%3B%26gt%3B%26amp%3Bnbsp%3B%20%26amp%3Bnbsp%3B%20C_5%2C%26lt%3B%2Fspan%26gt%3B%26lt%3B%2Fdiv%26gt%3B%26lt%3Bdiv%26gt%3B%26lt%3Bspan%20style%3D%26quot%3Bcolor%3A%20%233b3b3b%3B%26quot%3B%26gt%3B%26amp%3Bnbsp%3B%20%26amp%3Bnbsp%3B%20C_10%2C%26lt%3B%2Fspan%26gt%3B%26lt%3B%2Fdiv%26gt%3B%26lt%3Bdiv%26gt%3B%26lt%3Bspan%20style%3D%26quot%3Bcolor%3A%20%233b3b3b%3B%26quot%3B%26gt%3B%26amp%3Bnbsp%3B%20%26amp%3Bnbsp%3B%20C_15%2C%26lt%3B%2Fspan%26gt%3B%26lt%3B%2Fdiv%26gt%3B%26lt%3Bdiv%26gt%3B%26lt%3Bspan%20style%3D%26quot%3Bcolor%3A%20%233b3b3b%3B%26quot%3B%26gt%3B%26amp%3Bnbsp%3B%20%26amp%3Bnbsp%3B%20C_20%2C%26lt%3B%2Fspan%26gt%3B%26lt%3B%2Fdiv%26gt%3B%26lt%3Bdiv%26gt%3B%26lt%3Bspan%20style%3D%26quot%3Bcolor%3A%20%233b3b3b%3B%26quot%3B%26gt%3B%26amp%3Bnbsp%3B%20%26amp%3Bnbsp%3B%20C_25%26lt%3B%2Fspan%26gt%3B%26lt%3B%2Fdiv%26gt%3B%26lt%3B%2Fdiv%26gt%3B%22%20style%3D%22text%3BwhiteSpace%3Dwrap%3Bhtml%3D1%3B%22%20vertex%3D%221%22%20parent%3D%222%22%3E%3CmxGeometry%20x%3D%221326.0550458715595%22%20y%3D%22125.53191489361701%22%20width%3D%22133.94495412844037%22%20height%3D%22175.74468085106383%22%20as%3D%22geometry%22%2F%3E%3C%2FmxCell%3E%3CmxCell%20id%3D%2232%22%20value%3D%22%22%20style%3D%22endArrow%3Dclassic%3Bhtml%3D1%3Brounded%3D0%3BexitX%3D0%3BexitY%3D0.5%3BexitDx%3D0%3BexitDy%3D0%3BentryX%3D0.883%3BentryY%3D0.209%3BentryDx%3D0%3BentryDy%3D0%3BentryPerimeter%3D0%3Bcurved%3D1%3B%22%20edge%3D%221%22%20parent%3D%222%22%20source%3D%223%22%20target%3D%2220%22%3E%3CmxGeometry%20width%3D%2250%22%20height%3D%2250%22%20relative%3D%221%22%20as%3D%22geometry%22%3E%3CmxPoint%20x%3D%22455.4128440366972%22%20y%3D%22256.0851063829787%22%20as%3D%22sourcePoint%22%2F%3E%3CmxPoint%20x%3D%22867.9633027522935%22%20y%3D%22225.9574468085106%22%20as%3D%22targetPoint%22%2F%3E%3CArray%20as%3D%22points%22%2F%3E%3C%2FmxGeometry%3E%3C%2FmxCell%3E%3CmxCell%20id%3D%2233%22%20value%3D%22%26lt%3Bspan%20style%3D%26quot%3Bcolor%3A%20rgba(0%2C%200%2C%200%2C%200)%3B%20font-family%3A%20monospace%3B%20font-size%3A%200px%3B%20text-align%3A%20start%3B%20background-color%3A%20rgb(236%2C%20236%2C%20236)%3B%26quot%3B%26gt%3B%253CmxGraphModel%253E%253Croot%253E%253CmxCell%2520id%253D%25220%2522%252F%253E%253CmxCell%2520id%253D%25221%2522%2520parent%253D%25220%2522%252F%253E%253CmxCell%2520id%253D%25222%2522%2520value%253D%2522%2522%2520style%253D%2522endArrow%253Dclassic%253Bhtml%253D1%253Brounded%253D0%253BexitX%253D1%253BexitY%253D0.5%253BexitDx%253D0%253BexitDy%253D0%253BentryX%253D0.05%253BentryY%253D0.681%253BentryDx%253D0%253BentryDy%253D0%253BentryPerimeter%253D0%253Bcurved%253D1%253B%2522%2520edge%253D%25221%2522%2520parent%253D%25221%2522%253E%253CmxGeometry%2520width%253D%252250%2522%2520height%253D%252250%2522%2520relative%253D%25221%2522%2520as%253D%2522geometry%2522%253E%253CmxPoint%2520x%253D%252260%2522%2520y%253D%2522518%2522%2520as%253D%2522sourcePoint%2522%252F%253E%253CmxPoint%2520x%253D%2522368%2522%2520y%253D%2522494%2522%2520as%253D%2522targetPoint%2522%252F%253E%253CArray%2520as%253D%2522points%2522%252F%253E%253C%252FmxGeometry%253E%253C%252FmxCell%253E%253CmxCell%2520id%253D%25223%2522%2520value%253D%2522!emergency%2526lt%253Bbr%2526gt%253B%2526lt%253Bdiv%2520style%253D%2526quot%253Bfont-size%253A%252012px%253B%2520text-wrap-mode%253A%2520wrap%253B%2520background-color%253A%2520rgb(236%252C%2520236%252C%2520236)%253B%2526quot%253B%2526gt%253B----------%2526lt%253Bbr%2526gt%253B%2526lt%253Bdiv%2520style%253D%2526quot%253Bcolor%253A%2520rgb(59%252C%252059%252C%252059)%253B%2520background-color%253A%2520rgb(255%252C%2520255%252C%2520255)%253B%2520font-family%253A%2520Consolas%252C%2520%2526amp%253Bquot%253BCourier%2520New%2526amp%253Bquot%253B%252C%2520monospace%253B%2520font-size%253A%252014px%253B%2520line-height%253A%252019px%253B%2520white-space%253A%2520pre%253B%2526quot%253B%2526gt%253B%2526lt%253Bdiv%2526gt%253B%2526lt%253Bspan%2520style%253D%2526quot%253Bcolor%253A%2520rgb(0%252C%252016%252C%2520128)%253B%2526quot%253B%2526gt%253Bload_value%2526lt%253B%252Fspan%2526gt%253B%2526lt%253Bspan%2520style%253D%2526quot%253Bcolor%253A%2520rgb(0%252C%25200%252C%25200)%253B%2526quot%253B%2526gt%253B%253D%2526lt%253B%252Fspan%2526gt%253B%2526lt%253Bspan%2520style%253D%2526quot%253Bcolor%253A%2520rgb(9%252C%2520134%252C%252088)%253B%2526quot%253B%2526gt%253B8&#39;d30%2526lt%253B%252Fspan%2526gt%253B%253B%2526lt%253B%252Fdiv%2526gt%253B%2526lt%253Bdiv%2526gt%253B%2526amp%253Bnbsp%253B%2520%2526amp%253Bnbsp%253B%2526lt%253Bspan%2520style%253D%2526quot%253Bcolor%253A%2520rgb(0%252C%252016%252C%2520128)%253B%2526quot%253B%2526gt%253Bload%2526lt%253B%252Fspan%2526gt%253B%2526lt%253Bspan%2520style%253D%2526quot%253Bcolor%253A%2520rgb(0%252C%25200%252C%25200)%253B%2526quot%253B%2526gt%253B%253D%2526lt%253B%252Fspan%2526gt%253B%2526lt%253Bspan%2520style%253D%2526quot%253Bcolor%253A%2520rgb(9%252C%2520134%252C%252088)%253B%2526quot%253B%2526gt%253B1&#39;b1%2526lt%253B%252Fspan%2526gt%253B%253B%2526lt%253B%252Fdiv%2526gt%253B%2526lt%253B%252Fdiv%2526gt%253B%2526lt%253B%252Fdiv%2526gt%253B%2522%2520style%253D%2522edgeLabel%253Bhtml%253D1%253Balign%253Dcenter%253BverticalAlign%253Dmiddle%253Bresizable%253D0%253Bpoints%253D%255B%255D%253B%2522%2520vertex%253D%25221%2522%2520connectable%253D%25220%2522%2520parent%253D%25222%2522%253E%253CmxGeometry%2520x%253D%2522-0.226%2522%2520y%253D%2522-3%2522%2520relative%253D%25221%2522%2520as%253D%2522geometry%2522%253E%253CmxPoint%2520x%253D%252250%2522%2520y%253D%252234%2522%2520as%253D%2522offset%2522%252F%253E%253C%252FmxGeometry%253E%253C%252FmxCell%253E%253C%252Froot%253E%253C%252FmxGraphModel%253E%26lt%3B%2Fspan%26gt%3B%22%20style%3D%22edgeLabel%3Bhtml%3D1%3Balign%3Dcenter%3BverticalAlign%3Dmiddle%3Bresizable%3D0%3Bpoints%3D%5B%5D%3B%22%20vertex%3D%221%22%20connectable%3D%220%22%20parent%3D%2232%22%3E%3CmxGeometry%20x%3D%22-0.0809%22%20y%3D%22-3%22%20relative%3D%221%22%20as%3D%22geometry%22%3E%3CmxPoint%20y%3D%22-1%22%20as%3D%22offset%22%2F%3E%3C%2FmxGeometry%3E%3C%2FmxCell%3E%3CmxCell%20id%3D%2234%22%20value%3D%22%26lt%3Bspan%20style%3D%26quot%3Bcolor%3A%20rgb(0%2C%2016%2C%20128)%3B%20font-family%3A%20Consolas%2C%20%26amp%3Bquot%3BCourier%20New%26amp%3Bquot%3B%2C%20monospace%3B%20font-size%3A%2014px%3B%20white-space-collapse%3A%20preserve%3B%26quot%3B%26gt%3Bcoin_5%26lt%3B%2Fspan%26gt%3B%22%20style%3D%22edgeLabel%3Bhtml%3D1%3Balign%3Dcenter%3BverticalAlign%3Dmiddle%3Bresizable%3D0%3Bpoints%3D%5B%5D%3B%22%20vertex%3D%221%22%20connectable%3D%220%22%20parent%3D%2232%22%3E%3CmxGeometry%20x%3D%22-0.0712%22%20y%3D%22-4%22%20relative%3D%221%22%20as%3D%22geometry%22%3E%3CmxPoint%20x%3D%22-24%22%20y%3D%22-11%22%20as%3D%22offset%22%2F%3E%3C%2FmxGeometry%3E%3C%2FmxCell%3E%3CmxCell%20id%3D%2235%22%20value%3D%22%22%20style%3D%22endArrow%3Dclassic%3Bhtml%3D1%3Brounded%3D0%3BexitX%3D0.439%3BexitY%3D0.011%3BexitDx%3D0%3BexitDy%3D0%3BexitPerimeter%3D0%3BentryX%3D0%3BentryY%3D0%3BentryDx%3D0%3BentryDy%3D0%3Bcurved%3D1%3B%22%20edge%3D%221%22%20parent%3D%222%22%20source%3D%2220%22%20target%3D%223%22%3E%3CmxGeometry%20width%3D%2250%22%20height%3D%2250%22%20relative%3D%221%22%20as%3D%22geometry%22%3E%3CmxPoint%20x%3D%22508.99082568807336%22%20y%3D%22527.2340425531914%22%20as%3D%22sourcePoint%22%2F%3E%3CmxPoint%20x%3D%22575.9633027522935%22%20y%3D%22464.46808510638294%22%20as%3D%22targetPoint%22%2F%3E%3CArray%20as%3D%22points%22%3E%3CmxPoint%20x%3D%22442.01834862385317%22%20y%3D%2262.76595744680851%22%2F%3E%3C%2FArray%3E%3C%2FmxGeometry%3E%3C%2FmxCell%3E%3CmxCell%20id%3D%2236%22%20value%3D%22%26lt%3Bspan%20style%3D%26quot%3Bfont-size%3A%2012px%3B%26quot%3B%26gt%3BC_25%26lt%3Bbr%26gt%3B-----------%26lt%3Bbr%26gt%3Bdispense_item%26lt%3B%2Fspan%26gt%3B%22%20style%3D%22edgeLabel%3Bhtml%3D1%3Balign%3Dcenter%3BverticalAlign%3Dmiddle%3Bresizable%3D0%3Bpoints%3D%5B%5D%3B%22%20vertex%3D%221%22%20connectable%3D%220%22%20parent%3D%2235%22%3E%3CmxGeometry%20x%3D%220.1462%22%20y%3D%22-37%22%20relative%3D%221%22%20as%3D%22geometry%22%3E%3CmxPoint%20x%3D%22-11%22%20y%3D%22-34%22%20as%3D%22offset%22%2F%3E%3C%2FmxGeometry%3E%3C%2FmxCell%3E%3CmxCell%20id%3D%2237%22%20value%3D%22%22%20style%3D%22endArrow%3Dclassic%3Bhtml%3D1%3Brounded%3D0%3BexitX%3D1%3BexitY%3D0.5%3BexitDx%3D0%3BexitDy%3D0%3BentryX%3D0.201%3BentryY%3D0.931%3BentryDx%3D0%3BentryDy%3D0%3BentryPerimeter%3D0%3Bcurved%3D1%3B%22%20edge%3D%221%22%20parent%3D%222%22%20source%3D%2215%22%20target%3D%2213%22%3E%3CmxGeometry%20width%3D%2250%22%20height%3D%2250%22%20relative%3D%221%22%20as%3D%22geometry%22%3E%3CmxPoint%20x%3D%22508.99082568807336%22%20y%3D%22702.9787234042553%22%20as%3D%22sourcePoint%22%2F%3E%3CmxPoint%20x%3D%22575.9633027522935%22%20y%3D%22640.2127659574468%22%20as%3D%22targetPoint%22%2F%3E%3CArray%20as%3D%22points%22%3E%3CmxPoint%20x%3D%22750.0917431192661%22%20y%3D%22803.4042553191489%22%2F%3E%3C%2FArray%3E%3C%2FmxGeometry%3E%3C%2FmxCell%3E%3CmxCell%20id%3D%2238%22%20value%3D%22%26lt%3Bspan%20style%3D%26quot%3Bwhite-space-collapse%3A%20preserve%3B%20color%3A%20rgb(0%2C%2016%2C%20128)%3B%20font-family%3A%20Consolas%2C%20%26amp%3Bquot%3BCourier%20New%26amp%3Bquot%3B%2C%20monospace%3B%20font-size%3A%2014px%3B%26quot%3B%26gt%3Bcoin_25%26lt%3B%2Fspan%26gt%3B%26lt%3Bspan%20style%3D%26quot%3Bfont-size%3A%2012px%3B%26quot%3B%26gt%3B%26lt%3Bbr%26gt%3B%26lt%3B%2Fspan%26gt%3B%26lt%3Bdiv%26gt%3B%26lt%3Bspan%20style%3D%26quot%3Bcolor%3A%20rgb(0%2C%2016%2C%20128)%3B%20font-family%3A%20Consolas%2C%20%26amp%3Bquot%3BCourier%20New%26amp%3Bquot%3B%2C%20monospace%3B%20font-size%3A%2014px%3B%20white-space-collapse%3A%20preserve%3B%26quot%3B%26gt%3B______%26lt%3Bbr%26gt%3Bdispense_item%26lt%3B%2Fspan%26gt%3B%26lt%3B%2Fdiv%26gt%3B%22%20style%3D%22edgeLabel%3Bhtml%3D1%3Balign%3Dcenter%3BverticalAlign%3Dmiddle%3Bresizable%3D0%3Bpoints%3D%5B%5D%3BlabelBackgroundColor%3Dnone%3B%22%20vertex%3D%221%22%20connectable%3D%220%22%20parent%3D%2237%22%3E%3CmxGeometry%20x%3D%220.1291%22%20y%3D%2238%22%20relative%3D%221%22%20as%3D%22geometry%22%3E%3CmxPoint%20x%3D%22-387%22%20y%3D%2293%22%20as%3D%22offset%22%2F%3E%3C%2FmxGeometry%3E%3C%2FmxCell%3E%3CmxCell%20id%3D%2239%22%20value%3D%22%22%20style%3D%22endArrow%3Dclassic%3Bhtml%3D1%3Brounded%3D0%3BexitX%3D0.726%3BexitY%3D0.042%3BexitDx%3D0%3BexitDy%3D0%3BexitPerimeter%3D0%3BentryX%3D0.705%3BentryY%3D0.982%3BentryDx%3D0%3BentryDy%3D0%3BentryPerimeter%3D0%3Bcurved%3D1%3B%22%20edge%3D%221%22%20parent%3D%222%22%20source%3D%2218%22%20target%3D%223%22%3E%3CmxGeometry%20width%3D%2250%22%20height%3D%2250%22%20relative%3D%221%22%20as%3D%22geometry%22%3E%3CmxPoint%20x%3D%22669.7247706422019%22%20y%3D%221004.2553191489361%22%20as%3D%22sourcePoint%22%2F%3E%3CmxPoint%20x%3D%22736.697247706422%22%20y%3D%22941.4893617021276%22%20as%3D%22targetPoint%22%2F%3E%3CArray%20as%3D%22points%22%3E%3CmxPoint%20x%3D%22910.8256880733944%22%20y%3D%22753.1914893617021%22%2F%3E%3C%2FArray%3E%3C%2FmxGeometry%3E%3C%2FmxCell%3E%3CmxCell%20id%3D%2240%22%20value%3D%22%26lt%3Bspan%20style%3D%26quot%3Bcolor%3A%20rgb(0%2C%2016%2C%20128)%3B%20font-family%3A%20Consolas%2C%20%26amp%3Bquot%3BCourier%20New%26amp%3Bquot%3B%2C%20monospace%3B%20font-size%3A%2014px%3B%20white-space-collapse%3A%20preserve%3B%26quot%3B%26gt%3Bcoin_10%26lt%3B%2Fspan%26gt%3B%26lt%3Bbr%20style%3D%26quot%3Bcolor%3A%20rgb(0%2C%2016%2C%20128)%3B%20font-family%3A%20Consolas%2C%20%26amp%3Bquot%3BCourier%20New%26amp%3Bquot%3B%2C%20monospace%3B%20font-size%3A%2014px%3B%20white-space-collapse%3A%20preserve%3B%26quot%3B%26gt%3B%26lt%3Bspan%20style%3D%26quot%3Bcolor%3A%20rgb(0%2C%2016%2C%20128)%3B%20font-family%3A%20Consolas%2C%20%26amp%3Bquot%3BCourier%20New%26amp%3Bquot%3B%2C%20monospace%3B%20font-size%3A%2014px%3B%20white-space-collapse%3A%20preserve%3B%26quot%3B%26gt%3B--------%26lt%3B%2Fspan%26gt%3B%26lt%3Bbr%20style%3D%26quot%3Bcolor%3A%20rgb(0%2C%2016%2C%20128)%3B%20font-family%3A%20Consolas%2C%20%26amp%3Bquot%3BCourier%20New%26amp%3Bquot%3B%2C%20monospace%3B%20font-size%3A%2014px%3B%20white-space-collapse%3A%20preserve%3B%26quot%3B%26gt%3B%26lt%3Bspan%20style%3D%26quot%3Bcolor%3A%20rgb(0%2C%2016%2C%20128)%3B%20font-family%3A%20Consolas%2C%20%26amp%3Bquot%3BCourier%20New%26amp%3Bquot%3B%2C%20monospace%3B%20font-size%3A%2014px%3B%20white-space-collapse%3A%20preserve%3B%26quot%3B%26gt%3Bdispense_item%26lt%3B%2Fspan%26gt%3B%22%20style%3D%22edgeLabel%3Bhtml%3D1%3Balign%3Dcenter%3BverticalAlign%3Dmiddle%3Bresizable%3D0%3Bpoints%3D%5B%5D%3BlabelBackgroundColor%3Dnone%3B%22%20vertex%3D%221%22%20connectable%3D%220%22%20parent%3D%2239%22%3E%3CmxGeometry%20x%3D%220.1131%22%20y%3D%2241%22%20relative%3D%221%22%20as%3D%22geometry%22%3E%3CmxPoint%20x%3D%22-70%22%20y%3D%22300%22%20as%3D%22offset%22%2F%3E%3C%2FmxGeometry%3E%3C%2FmxCell%3E%3CmxCell%20id%3D%2241%22%20value%3D%22%22%20style%3D%22endArrow%3Dclassic%3Bhtml%3D1%3Brounded%3D0%3BexitX%3D0.366%3BexitY%3D0.991%3BexitDx%3D0%3BexitDy%3D0%3BexitPerimeter%3D0%3BentryX%3D0.349%3BentryY%3D0.971%3BentryDx%3D0%3BentryDy%3D0%3BentryPerimeter%3D0%3Bcurved%3D1%3B%22%20edge%3D%221%22%20parent%3D%222%22%20source%3D%2218%22%20target%3D%2215%22%3E%3CmxGeometry%20width%3D%2250%22%20height%3D%2250%22%20relative%3D%221%22%20as%3D%22geometry%22%3E%3CmxPoint%20x%3D%22508.99082568807336%22%20y%3D%22828.5106382978723%22%20as%3D%22sourcePoint%22%2F%3E%3CmxPoint%20x%3D%22575.9633027522935%22%20y%3D%22765.7446808510638%22%20as%3D%22targetPoint%22%2F%3E%3CArray%20as%3D%22points%22%3E%3CmxPoint%20x%3D%22160.73394495412845%22%20y%3D%221154.8936170212764%22%2F%3E%3C%2FArray%3E%3C%2FmxGeometry%3E%3C%2FmxCell%3E%3CmxCell%20id%3D%2242%22%20value%3D%22%26lt%3Bspan%20style%3D%26quot%3Bcolor%3A%20rgb(0%2C%2016%2C%20128)%3B%20font-family%3A%20Consolas%2C%20%26amp%3Bquot%3BCourier%20New%26amp%3Bquot%3B%2C%20monospace%3B%20font-size%3A%2014px%3B%20white-space-collapse%3A%20preserve%3B%26quot%3B%26gt%3Bcoin_25%26lt%3B%2Fspan%26gt%3B%26lt%3Bspan%20style%3D%26quot%3Bfont-size%3A%2012px%3B%26quot%3B%26gt%3B%26lt%3Bbr%26gt%3B%26lt%3B%2Fspan%26gt%3B%26lt%3Bdiv%26gt%3B%26lt%3Bspan%20style%3D%26quot%3Bcolor%3A%20rgb(0%2C%2016%2C%20128)%3B%20font-family%3A%20Consolas%2C%20%26amp%3Bquot%3BCourier%20New%26amp%3Bquot%3B%2C%20monospace%3B%20font-size%3A%2014px%3B%20white-space-collapse%3A%20preserve%3B%26quot%3B%26gt%3B______%26lt%3Bbr%2F%26gt%3Bdispense_item%26lt%3B%2Fspan%26gt%3B%26lt%3B%2Fdiv%26gt%3B%22%20style%3D%22edgeLabel%3Bhtml%3D1%3Balign%3Dcenter%3BverticalAlign%3Dmiddle%3Bresizable%3D0%3Bpoints%3D%5B%5D%3B%22%20vertex%3D%221%22%20connectable%3D%220%22%20parent%3D%2241%22%3E%3CmxGeometry%20x%3D%22-0.01%22%20y%3D%22-34%22%20relative%3D%221%22%20as%3D%22geometry%22%3E%3CmxPoint%20x%3D%22-13%22%20y%3D%2240%22%20as%3D%22offset%22%2F%3E%3C%2FmxGeometry%3E%3C%2FmxCell%3E%3CmxCell%20id%3D%2243%22%20value%3D%22%22%20style%3D%22endArrow%3Dclassic%3Bhtml%3D1%3Brounded%3D0%3BexitX%3D1%3BexitY%3D0%3BexitDx%3D0%3BexitDy%3D0%3BentryX%3D0.436%3BentryY%3D1.025%3BentryDx%3D0%3BentryDy%3D0%3BentryPerimeter%3D0%3Bcurved%3D1%3B%22%20edge%3D%221%22%20parent%3D%222%22%20source%3D%228%22%20target%3D%223%22%3E%3CmxGeometry%20width%3D%2250%22%20height%3D%2250%22%20relative%3D%221%22%20as%3D%22geometry%22%3E%3CmxPoint%20x%3D%22508.99082568807336%22%20y%3D%22577.4468085106382%22%20as%3D%22sourcePoint%22%2F%3E%3CmxPoint%20x%3D%22575.9633027522935%22%20y%3D%22514.6808510638298%22%20as%3D%22targetPoint%22%2F%3E%3CArray%20as%3D%22points%22%3E%3CmxPoint%20x%3D%22750.0917431192661%22%20y%3D%22389.1489361702127%22%2F%3E%3C%2FArray%3E%3C%2FmxGeometry%3E%3C%2FmxCell%3E%3CmxCell%20id%3D%2244%22%20value%3D%22%26lt%3Bspan%20style%3D%26quot%3Bcolor%3A%20rgb(0%2C%2016%2C%20128)%3B%20font-family%3A%20Consolas%2C%20%26amp%3Bquot%3BCourier%20New%26amp%3Bquot%3B%2C%20monospace%3B%20font-size%3A%2014px%3B%20white-space-collapse%3A%20preserve%3B%20background-color%3A%20rgb(255%2C%20255%2C%20255)%3B%26quot%3B%26gt%3Bcoin_5%26lt%3B%2Fspan%26gt%3B%26lt%3Bbr%20style%3D%26quot%3Bcolor%3A%20rgb(0%2C%2016%2C%20128)%3B%20font-family%3A%20Consolas%2C%20%26amp%3Bquot%3BCourier%20New%26amp%3Bquot%3B%2C%20monospace%3B%20font-size%3A%2014px%3B%20white-space-collapse%3A%20preserve%3B%20background-color%3A%20rgb(255%2C%20255%2C%20255)%3B%26quot%3B%26gt%3B%26lt%3Bspan%20style%3D%26quot%3Bcolor%3A%20rgb(0%2C%2016%2C%20128)%3B%20font-family%3A%20Consolas%2C%20%26amp%3Bquot%3BCourier%20New%26amp%3Bquot%3B%2C%20monospace%3B%20font-size%3A%2014px%3B%20white-space-collapse%3A%20preserve%3B%20background-color%3A%20rgb(255%2C%20255%2C%20255)%3B%26quot%3B%26gt%3B--------%26lt%3B%2Fspan%26gt%3B%26lt%3Bbr%20style%3D%26quot%3Bcolor%3A%20rgb(0%2C%2016%2C%20128)%3B%20font-family%3A%20Consolas%2C%20%26amp%3Bquot%3BCourier%20New%26amp%3Bquot%3B%2C%20monospace%3B%20font-size%3A%2014px%3B%20white-space-collapse%3A%20preserve%3B%20background-color%3A%20rgb(255%2C%20255%2C%20255)%3B%26quot%3B%26gt%3B%26lt%3Bspan%20style%3D%26quot%3Bcolor%3A%20rgb(0%2C%2016%2C%20128)%3B%20font-family%3A%20Consolas%2C%20%26amp%3Bquot%3BCourier%20New%26amp%3Bquot%3B%2C%20monospace%3B%20font-size%3A%2014px%3B%20white-space-collapse%3A%20preserve%3B%20background-color%3A%20rgb(255%2C%20255%2C%20255)%3B%26quot%3B%26gt%3Bdispense_item%26lt%3B%2Fspan%26gt%3B%22%20style%3D%22edgeLabel%3Bhtml%3D1%3Balign%3Dcenter%3BverticalAlign%3Dmiddle%3Bresizable%3D0%3Bpoints%3D%5B%5D%3BlabelBackgroundColor%3Dnone%3B%22%20vertex%3D%221%22%20connectable%3D%220%22%20parent%3D%2243%22%3E%3CmxGeometry%20x%3D%220.3749%22%20y%3D%2211%22%20relative%3D%221%22%20as%3D%22geometry%22%3E%3CmxPoint%20x%3D%22-26%22%20y%3D%22123%22%20as%3D%22offset%22%2F%3E%3C%2FmxGeometry%3E%3C%2FmxCell%3E%3CmxCell%20id%3D%2245%22%20value%3D%22%22%20style%3D%22endArrow%3Dclassic%3Bhtml%3D1%3Brounded%3D0%3BentryX%3D0.759%3BentryY%3D0.927%3BentryDx%3D0%3BentryDy%3D0%3BentryPerimeter%3D0%3BexitX%3D0.048%3BexitY%3D0.317%3BexitDx%3D0%3BexitDy%3D0%3BexitPerimeter%3D0%3B%22%20edge%3D%221%22%20parent%3D%222%22%20source%3D%228%22%20target%3D%2220%22%3E%3CmxGeometry%20width%3D%2250%22%20height%3D%2250%22%20relative%3D%221%22%20as%3D%22geometry%22%3E%3CmxPoint%20x%3D%22508.99082568807336%22%20y%3D%22577.4468085106382%22%20as%3D%22sourcePoint%22%2F%3E%3CmxPoint%20x%3D%22575.9633027522935%22%20y%3D%22514.6808510638298%22%20as%3D%22targetPoint%22%2F%3E%3C%2FmxGeometry%3E%3C%2FmxCell%3E%3CmxCell%20id%3D%2246%22%20value%3D%22%26lt%3Bspan%20style%3D%26quot%3Bcolor%3A%20rgb(0%2C%2016%2C%20128)%3B%20font-family%3A%20Consolas%2C%20%26amp%3Bquot%3BCourier%20New%26amp%3Bquot%3B%2C%20monospace%3B%20font-size%3A%2014px%3B%20white-space-collapse%3A%20preserve%3B%26quot%3B%26gt%3Bcoin_10%26lt%3Bbr%26gt%3B--------%26lt%3Bbr%26gt%3Bdispense_item%26lt%3B%2Fspan%26gt%3B%22%20style%3D%22edgeLabel%3Bhtml%3D1%3Balign%3Dcenter%3BverticalAlign%3Dmiddle%3Bresizable%3D0%3Bpoints%3D%5B%5D%3BlabelBackgroundColor%3Dnone%3B%22%20vertex%3D%221%22%20connectable%3D%220%22%20parent%3D%2245%22%3E%3CmxGeometry%20x%3D%22-0.1814%22%20y%3D%225%22%20relative%3D%221%22%20as%3D%22geometry%22%3E%3CmxPoint%20x%3D%22-36%22%20y%3D%2219%22%20as%3D%22offset%22%2F%3E%3C%2FmxGeometry%3E%3C%2FmxCell%3E%3CmxCell%20id%3D%2247%22%20value%3D%22%22%20style%3D%22endArrow%3Dclassic%3Bhtml%3D1%3Brounded%3D0%3BexitX%3D1%3BexitY%3D1%3BexitDx%3D0%3BexitDy%3D0%3B%22%20edge%3D%221%22%20parent%3D%222%22%20source%3D%228%22%20target%3D%2218%22%3E%3CmxGeometry%20width%3D%2250%22%20height%3D%2250%22%20relative%3D%221%22%20as%3D%22geometry%22%3E%3CmxPoint%20x%3D%22690%22%20y%3D%22590%22%20as%3D%22sourcePoint%22%2F%3E%3CmxPoint%20x%3D%22740%22%20y%3D%22540%22%20as%3D%22targetPoint%22%2F%3E%3C%2FmxGeometry%3E%3C%2FmxCell%3E%3CmxCell%20id%3D%2248%22%20value%3D%22%26lt%3Bspan%20style%3D%26quot%3Bwhite-space-collapse%3A%20preserve%3B%20color%3A%20rgb(0%2C%2016%2C%20128)%3B%20font-family%3A%20Consolas%2C%20%26amp%3Bquot%3BCourier%20New%26amp%3Bquot%3B%2C%20monospace%3B%20font-size%3A%2014px%3B%26quot%3B%26gt%3Bcoin_25%26lt%3B%2Fspan%26gt%3B%26lt%3Bspan%20style%3D%26quot%3Bfont-size%3A%2012px%3B%26quot%3B%26gt%3B%26lt%3Bbr%26gt%3B%26lt%3B%2Fspan%26gt%3B%26lt%3Bdiv%20style%3D%26quot%3B%26quot%3B%26gt%3B%26lt%3Bspan%20style%3D%26quot%3Bcolor%3A%20rgb(0%2C%2016%2C%20128)%3B%20font-family%3A%20Consolas%2C%20%26amp%3Bquot%3BCourier%20New%26amp%3Bquot%3B%2C%20monospace%3B%20font-size%3A%2014px%3B%20white-space-collapse%3A%20preserve%3B%26quot%3B%26gt%3B______%26lt%3Bbr%26gt%3Bdispense_item%26lt%3B%2Fspan%26gt%3B%26lt%3B%2Fdiv%26gt%3B%22%20style%3D%22edgeLabel%3Bhtml%3D1%3Balign%3Dcenter%3BverticalAlign%3Dmiddle%3Bresizable%3D0%3Bpoints%3D%5B%5D%3BlabelBackgroundColor%3Dnone%3B%22%20vertex%3D%221%22%20connectable%3D%220%22%20parent%3D%2247%22%3E%3CmxGeometry%20x%3D%22-0.4857%22%20y%3D%22-1%22%20relative%3D%221%22%20as%3D%22geometry%22%3E%3CmxPoint%20x%3D%2240%22%20y%3D%22-32%22%20as%3D%22offset%22%2F%3E%3C%2FmxGeometry%3E%3C%2FmxCell%3E%3CmxCell%20id%3D%2249%22%20value%3D%22%22%20style%3D%22endArrow%3Dclassic%3Bhtml%3D1%3Brounded%3D0%3BexitX%3D0.958%3BexitY%3D0.67%3BexitDx%3D0%3BexitDy%3D0%3BexitPerimeter%3D0%3BentryX%3D0.005%3BentryY%3D0.711%3BentryDx%3D0%3BentryDy%3D0%3BentryPerimeter%3D0%3Bcurved%3D1%3B%22%20edge%3D%221%22%20parent%3D%222%22%20source%3D%2213%22%20target%3D%2215%22%3E%3CmxGeometry%20width%3D%2250%22%20height%3D%2250%22%20relative%3D%221%22%20as%3D%22geometry%22%3E%3CmxPoint%20x%3D%22800%22%20y%3D%22620%22%20as%3D%22sourcePoint%22%2F%3E%3CmxPoint%20x%3D%22850%22%20y%3D%22570%22%20as%3D%22targetPoint%22%2F%3E%3CArray%20as%3D%22points%22%3E%3CmxPoint%20x%3D%221260%22%20y%3D%221210%22%2F%3E%3CmxPoint%20x%3D%22750%22%20y%3D%221700%22%2F%3E%3CmxPoint%20x%3D%2220%22%20y%3D%221340%22%2F%3E%3C%2FArray%3E%3C%2FmxGeometry%3E%3C%2FmxCell%3E%3CmxCell%20id%3D%2250%22%20value%3D%22%26lt%3Bspan%20style%3D%26quot%3Bcolor%3A%20rgb(0%2C%2016%2C%20128)%3B%20font-family%3A%20Consolas%2C%20%26amp%3Bquot%3BCourier%20New%26amp%3Bquot%3B%2C%20monospace%3B%20font-size%3A%2014px%3B%20white-space-collapse%3A%20preserve%3B%26quot%3B%26gt%3Bcoin_5%26lt%3B%2Fspan%26gt%3B%22%20style%3D%22edgeLabel%3Bhtml%3D1%3Balign%3Dcenter%3BverticalAlign%3Dmiddle%3Bresizable%3D0%3Bpoints%3D%5B%5D%3B%22%20vertex%3D%221%22%20connectable%3D%220%22%20parent%3D%2249%22%3E%3CmxGeometry%20x%3D%22-0.9213%22%20y%3D%22-2%22%20relative%3D%221%22%20as%3D%22geometry%22%3E%3CmxPoint%20y%3D%221%22%20as%3D%22offset%22%2F%3E%3C%2FmxGeometry%3E%3C%2FmxCell%3E%3CmxCell%20id%3D%2251%22%20value%3D%22%22%20style%3D%22endArrow%3Dclassic%3Bhtml%3D1%3Brounded%3D0%3BentryX%3D0.99%3BentryY%3D0.384%3BentryDx%3D0%3BentryDy%3D0%3BentryPerimeter%3D0%3Bcurved%3D1%3B%22%20edge%3D%221%22%20target%3D%2220%22%20parent%3D%221%22%3E%3CmxGeometry%20width%3D%2250%22%20height%3D%2250%22%20relative%3D%221%22%20as%3D%22geometry%22%3E%3CmxPoint%20x%3D%22650%22%20y%3D%22510%22%20as%3D%22sourcePoint%22%2F%3E%3CmxPoint%20x%3D%22630%22%20y%3D%22530%22%20as%3D%22targetPoint%22%2F%3E%3CArray%20as%3D%22points%22%3E%3CmxPoint%20x%3D%22290%22%20y%3D%22375%22%2F%3E%3C%2FArray%3E%3C%2FmxGeometry%3E%3C%2FmxCell%3E%3CmxCell%20id%3D%2252%22%20value%3D%22%26lt%3Bspan%20style%3D%26quot%3Bwhite-space-collapse%3A%20preserve%3B%20color%3A%20rgb(0%2C%2016%2C%20128)%3B%20font-family%3A%20Consolas%2C%20%26amp%3Bquot%3BCourier%20New%26amp%3Bquot%3B%2C%20monospace%3B%20font-size%3A%2014px%3B%26quot%3B%26gt%3Bcoin_25%26lt%3B%2Fspan%26gt%3B%26lt%3Bspan%20style%3D%26quot%3Bfont-size%3A%2012px%3B%26quot%3B%26gt%3B%26lt%3Bbr%26gt%3B%26lt%3B%2Fspan%26gt%3B%26lt%3Bdiv%20style%3D%26quot%3B%26quot%3B%26gt%3B%26lt%3Bspan%20style%3D%26quot%3Bcolor%3A%20rgb(0%2C%2016%2C%20128)%3B%20font-family%3A%20Consolas%2C%20%26amp%3Bquot%3BCourier%20New%26amp%3Bquot%3B%2C%20monospace%3B%20font-size%3A%2014px%3B%20white-space-collapse%3A%20preserve%3B%26quot%3B%26gt%3B______%26lt%3Bbr%26gt%3Bdispense_item%26lt%3B%2Fspan%26gt%3B%26lt%3B%2Fdiv%26gt%3B%22%20style%3D%22edgeLabel%3Bhtml%3D1%3Balign%3Dcenter%3BverticalAlign%3Dmiddle%3Bresizable%3D0%3Bpoints%3D%5B%5D%3BlabelBackgroundColor%3Dnone%3B%22%20vertex%3D%221%22%20connectable%3D%220%22%20parent%3D%2251%22%3E%3CmxGeometry%20x%3D%22-0.6228%22%20y%3D%226%22%20relative%3D%221%22%20as%3D%22geometry%22%3E%3CmxPoint%20as%3D%22offset%22%2F%3E%3C%2FmxGeometry%3E%3C%2FmxCell%3E%3C%2Froot%3E%3C%2FmxGraphModel%3E&lt;/span&gt;" style="edgeLabel;html=1;align=center;verticalAlign=middle;resizable=0;points=[];container=0;" parent="TVpN9uFimq276Ua6HQ9l-87" vertex="1" connectable="0">
          <mxGeometry x="0.1462" y="-37" relative="1" as="geometry">
            <mxPoint x="-11" y="-34" as="offset" />
          </mxGeometry>
        </mxCell>
        <mxCell id="TVpN9uFimq276Ua6HQ9l-89" value="&lt;div style=&quot;font-family: Consolas, &amp;quot;Courier New&amp;quot;, monospace; font-size: 14px; line-height: 19px; white-space-collapse: preserve; color: rgb(59, 59, 59);&quot;&gt;&lt;div style=&quot;color: rgb(59, 59, 59); line-height: 19px;&quot;&gt;&lt;span style=&quot;color: #001080;&quot;&gt;coin_return&lt;/span&gt;&lt;/div&gt;&lt;div style=&quot;line-height: 19px;&quot;&gt;&lt;font color=&quot;#001080&quot;&gt;-----------&lt;br/&gt;&lt;/font&gt;&lt;div style=&quot;color: rgb(59, 59, 59); line-height: 19px;&quot;&gt;&lt;span style=&quot;color: #001080;&quot;&gt;return_5&lt;/span&gt;&lt;/div&gt;&lt;font color=&quot;#001080&quot;&gt;&lt;/font&gt;&lt;/div&gt;&lt;/div&gt;" style="edgeLabel;html=1;align=center;verticalAlign=middle;resizable=0;points=[];container=0;" parent="TVpN9uFimq276Ua6HQ9l-87" vertex="1" connectable="0">
          <mxGeometry x="0.138" y="-49" relative="1" as="geometry">
            <mxPoint x="-177" y="194" as="offset" />
          </mxGeometry>
        </mxCell>
        <mxCell id="TVpN9uFimq276Ua6HQ9l-90" value="" style="endArrow=classic;html=1;rounded=0;exitX=0.016;exitY=0.432;exitDx=0;exitDy=0;entryX=0.04;entryY=0.683;entryDx=0;entryDy=0;entryPerimeter=0;exitPerimeter=0;curved=1;" parent="1" source="5bVAExUQRSb6Ex8JUWl7-21" target="5bVAExUQRSb6Ex8JUWl7-28" edge="1">
          <mxGeometry width="50" height="50" relative="1" as="geometry">
            <mxPoint x="-740" y="117" as="sourcePoint" />
            <mxPoint x="-557" y="-250" as="targetPoint" />
            <Array as="points">
              <mxPoint x="-770" y="-370" />
            </Array>
          </mxGeometry>
        </mxCell>
        <mxCell id="TVpN9uFimq276Ua6HQ9l-91" value="&lt;div style=&quot;white-space-collapse: preserve; color: rgb(59, 59, 59); font-family: Consolas, &amp;quot;Courier New&amp;quot;, monospace; font-size: 14px; line-height: 19px; background-color: rgb(255, 255, 255);&quot;&gt;&lt;span style=&quot;color: rgb(0, 16, 128);&quot;&gt;coin_return&lt;/span&gt;&lt;/div&gt;&lt;div style=&quot;white-space-collapse: preserve; color: rgb(59, 59, 59); font-family: Consolas, &amp;quot;Courier New&amp;quot;, monospace; font-size: 14px; line-height: 19px; background-color: rgb(255, 255, 255);&quot;&gt;&lt;font color=&quot;#001080&quot;&gt;-----------&lt;br&gt;&lt;/font&gt;&lt;div style=&quot;line-height: 19px; color: rgb(59, 59, 59);&quot;&gt;&lt;span style=&quot;color: rgb(0, 16, 128);&quot;&gt;return_10&lt;/span&gt;&lt;/div&gt;&lt;/div&gt;" style="edgeLabel;html=1;align=center;verticalAlign=middle;resizable=0;points=[];container=0;" parent="TVpN9uFimq276Ua6HQ9l-90" vertex="1" connectable="0">
          <mxGeometry x="0.0806" y="2" relative="1" as="geometry">
            <mxPoint x="-12" y="206" as="offset" />
          </mxGeometry>
        </mxCell>
        <mxCell id="TVpN9uFimq276Ua6HQ9l-92" value="" style="endArrow=classic;html=1;rounded=0;exitX=0.629;exitY=0.005;exitDx=0;exitDy=0;entryX=0.217;entryY=0.899;entryDx=0;entryDy=0;entryPerimeter=0;curved=1;exitPerimeter=0;" parent="1" source="5bVAExUQRSb6Ex8JUWl7-12" edge="1">
          <mxGeometry width="50" height="50" relative="1" as="geometry">
            <mxPoint x="-84.73522935779829" y="-400.06031914893583" as="sourcePoint" />
            <mxPoint x="17.02275229357747" y="-634.9995744680849" as="targetPoint" />
            <Array as="points">
              <mxPoint x="-50" y="-514.6700000000001" />
            </Array>
          </mxGeometry>
        </mxCell>
        <mxCell id="TVpN9uFimq276Ua6HQ9l-93" value="&lt;div style=&quot;color: rgb(59, 59, 59); font-family: Consolas, &amp;quot;Courier New&amp;quot;, monospace; font-size: 14px; white-space-collapse: preserve; background-color: rgb(255, 255, 255); line-height: 19px;&quot;&gt;&lt;span style=&quot;color: rgb(0, 16, 128);&quot;&gt;coin_return&lt;/span&gt;&lt;/div&gt;&lt;div style=&quot;color: rgb(59, 59, 59); font-family: Consolas, &amp;quot;Courier New&amp;quot;, monospace; font-size: 14px; white-space-collapse: preserve; background-color: rgb(255, 255, 255); line-height: 19px;&quot;&gt;&lt;font color=&quot;#001080&quot;&gt;-----------&lt;br&gt;&lt;/font&gt;&lt;div style=&quot;line-height: 19px; color: rgb(59, 59, 59);&quot;&gt;&lt;span style=&quot;color: rgb(0, 16, 128);&quot;&gt;return_25&lt;/span&gt;&lt;/div&gt;&lt;/div&gt;" style="edgeLabel;html=1;align=center;verticalAlign=middle;resizable=0;points=[];labelBackgroundColor=none;container=0;" parent="TVpN9uFimq276Ua6HQ9l-92" vertex="1" connectable="0">
          <mxGeometry x="0.3749" y="11" relative="1" as="geometry">
            <mxPoint x="-29" y="62" as="offset" />
          </mxGeometry>
        </mxCell>
        <mxCell id="FxFcZ6_65opoF3Y45lLw-1" value="" style="endArrow=classic;html=1;rounded=0;entryX=0.988;entryY=0.435;entryDx=0;entryDy=0;entryPerimeter=0;curved=1;exitX=0.553;exitY=0;exitDx=0;exitDy=0;exitPerimeter=0;" edge="1" parent="1" source="5bVAExUQRSb6Ex8JUWl7-19" target="5bVAExUQRSb6Ex8JUWl7-1">
          <mxGeometry width="50" height="50" relative="1" as="geometry">
            <mxPoint x="498.26" y="-482.01999999999987" as="sourcePoint" />
            <mxPoint x="230" y="-703.88" as="targetPoint" />
            <Array as="points">
              <mxPoint x="472" y="-703.88" />
            </Array>
          </mxGeometry>
        </mxCell>
        <mxCell id="FxFcZ6_65opoF3Y45lLw-2" value="&lt;div style=&quot;color: rgb(59, 59, 59); font-family: Consolas, &amp;quot;Courier New&amp;quot;, monospace; font-size: 14px; white-space-collapse: preserve; background-color: rgb(255, 255, 255); line-height: 19px;&quot;&gt;&lt;span style=&quot;color: rgb(0, 16, 128);&quot;&gt;coin_return&lt;/span&gt;&lt;/div&gt;&lt;div style=&quot;color: rgb(59, 59, 59); font-family: Consolas, &amp;quot;Courier New&amp;quot;, monospace; font-size: 14px; white-space-collapse: preserve; background-color: rgb(255, 255, 255); line-height: 19px;&quot;&gt;&lt;font color=&quot;#001080&quot;&gt;-----------&lt;br&gt;&lt;/font&gt;&lt;div style=&quot;line-height: 19px; color: rgb(59, 59, 59);&quot;&gt;&lt;span style=&quot;color: rgb(0, 16, 128);&quot;&gt;return_10&lt;/span&gt;&lt;/div&gt;&lt;/div&gt;" style="edgeLabel;html=1;align=center;verticalAlign=middle;resizable=0;points=[];labelBackgroundColor=none;container=0;" vertex="1" connectable="0" parent="FxFcZ6_65opoF3Y45lLw-1">
          <mxGeometry x="-0.6228" y="6" relative="1" as="geometry">
            <mxPoint x="53" y="1" as="offset" />
          </mxGeometry>
        </mxCell>
        <mxCell id="FxFcZ6_65opoF3Y45lLw-3" value="" style="endArrow=classic;html=1;rounded=0;entryX=0.665;entryY=0.966;entryDx=0;entryDy=0;curved=1;entryPerimeter=0;exitX=0.757;exitY=0.926;exitDx=0;exitDy=0;exitPerimeter=0;" edge="1" parent="1" source="5bVAExUQRSb6Ex8JUWl7-26" target="5bVAExUQRSb6Ex8JUWl7-19">
          <mxGeometry width="50" height="50" relative="1" as="geometry">
            <mxPoint x="19.996861441744954" y="271.7461361046985" as="sourcePoint" />
            <mxPoint x="477.57000000000016" y="-281.16999999999996" as="targetPoint" />
            <Array as="points">
              <mxPoint x="570.2855963302754" y="83.21297872340449" />
            </Array>
          </mxGeometry>
        </mxCell>
        <mxCell id="FxFcZ6_65opoF3Y45lLw-4" value="&lt;div style=&quot;white-space-collapse: preserve; color: rgb(59, 59, 59); font-family: Consolas, &amp;quot;Courier New&amp;quot;, monospace; font-size: 14px; line-height: 19px; background-color: rgb(255, 255, 255);&quot;&gt;&lt;span style=&quot;color: rgb(0, 16, 128);&quot;&gt;coin_return&lt;/span&gt;&lt;/div&gt;&lt;div style=&quot;white-space-collapse: preserve; color: rgb(59, 59, 59); font-family: Consolas, &amp;quot;Courier New&amp;quot;, monospace; font-size: 14px; line-height: 19px; background-color: rgb(255, 255, 255);&quot;&gt;&lt;font color=&quot;#001080&quot;&gt;-----------&lt;br&gt;&lt;/font&gt;&lt;div style=&quot;line-height: 19px; color: rgb(59, 59, 59);&quot;&gt;&lt;span style=&quot;color: rgb(0, 16, 128);&quot;&gt;return_10&lt;/span&gt;&lt;/div&gt;&lt;/div&gt;" style="edgeLabel;html=1;align=center;verticalAlign=middle;resizable=0;points=[];container=0;" vertex="1" connectable="0" parent="FxFcZ6_65opoF3Y45lLw-3">
          <mxGeometry x="-0.0774" y="-41" relative="1" as="geometry">
            <mxPoint x="-292" y="88" as="offset" />
          </mxGeometry>
        </mxCell>
        <mxCell id="5bVAExUQRSb6Ex8JUWl7-12" value="C_25" style="ellipse;labelBackgroundColor=default;container=0;" parent="1" vertex="1">
          <mxGeometry x="-237.98165137614683" y="-412.97872340425533" width="227.7064220183486" height="194.57446808510636" as="geometry" />
        </mxCell>
        <mxCell id="5bVAExUQRSb6Ex8JUWl7-21" value="C_15" style="ellipse;labelBackgroundColor=default;container=0;" parent="1" vertex="1">
          <mxGeometry x="-680" y="-99.14893617021278" width="227.7064220183486" height="163.1914893617021" as="geometry" />
        </mxCell>
        <mxCell id="5bVAExUQRSb6Ex8JUWl7-28" value="C_5" style="ellipse;labelBackgroundColor=default;container=0;" parent="1" vertex="1">
          <mxGeometry x="-539.3577981651376" y="-664.0425531914893" width="241.10091743119264" height="232.23404255319147" as="geometry" />
        </mxCell>
      </root>
    </mxGraphModel>
  </diagram>
</mxfile>
